<svg xmlns="http://www.w3.org/2000/svg" xmlns:xlink="http://www.w3.org/1999/xlink" width="1080" height="375" viewBox="0 0 1080 375">
    <defs>
        <path id="a" d="M53.339.613l-.001.016c-.4-.009-.801-.016-1.204-.016C26.514.613 3.563 21.288.871 46.79c-2.693 25.503 15.893 46.178 41.512 46.178.403 0 .801-.012 1.203-.023l-.006.039h13.9c5.598.311 9.578 4.953 8.977 10.636-.601 5.7-5.587 10.355-11.27 10.646H41.334l7.844 35.52h2.877l.001-.017c.4.011.801.017 1.205.017 25.61 0 48.553-20.666 51.246-46.162 2.691-25.494-15.888-46.16-41.499-46.16-.47 0-.937.012-1.406.026l.002-.026H47.957l.002-.025c-5.624-.29-9.628-4.944-9.026-10.645.601-5.7 5.589-10.357 11.273-10.648h13.859L56.217.613h-2.878z"/>
        <path id="c" d="M.527 21.012c0 11.191 9.112 20.263 20.354 20.263 11.241 0 20.355-9.072 20.355-20.263C41.236 9.821 32.122.75 20.881.75 9.639.75.527 9.821.527 21.012z"/>
        <path id="e" d="M0 20.434c0 11.19 9.112 20.261 20.355 20.261 11.241 0 20.354-9.071 20.354-20.261C40.709 9.242 31.596.172 20.355.172 9.112.172 0 9.242 0 20.434z"/>
        <path id="g" d="M.651 49.507C3.5 22.52 27.79.64 54.902.64c27.113 0 46.78 21.88 43.931 48.867-2.85 26.989-27.138 48.868-54.25 48.868-27.113 0-46.78-21.879-43.932-48.868zm31.716-.991c-1.008 9.553 5.953 17.297 15.549 17.297s18.192-7.744 19.202-17.297c1.009-9.552-5.954-17.295-15.55-17.295s-18.192 7.743-19.201 17.295z"/>
        <path id="i" d="M14.266.224L.88 123.94h33.409l10.224-93.798H59c8.596 0 14.833 6.937 13.929 15.495-.903 8.557-8.604 15.495-17.201 15.495h-7.247l6.297 30.095c12.623-.73 25.378-4.665 33.466-11.81 9.007-7.954 14.272-19.165 15.801-33.628 1.527-14.466-1.373-25.675-8.7-33.631C88.019 4.203 80.266.224 64.9.224H14.266z"/>
        <path id="k" d="M21.207 11.598l-1.756 16.626H.188l6.553 29.798h9.564l-6.67 62.369H43.16l6.67-62.369h32.934l-6.553-29.798H52.977L55.878.752z"/>
        <path id="m" d="M60.115.224L42.267 42.496 32.932.224H.199l20.575 92.174-13.499 31.603h32.734L94.046.224z"/>
        <path id="o" d="M5.922 40.679L.379 92.59h33.525l5.306-49.668c.755-7.134 7.16-12.926 14.329-12.956l18.176-.052L65.271.224 50.945.09h-.076C28.411.089 8.284 18.314 5.922 40.679z"/>
        <path id="q" d="M21.477 10.926l-1.755 16.626H.459L7.01 57.349h9.565l-6.67 62.071h33.526l6.67-62.071h28.144l-6.552-29.797H53.247L56.149.079z"/>
    </defs>
    <g fill="none" fill-rule="evenodd">
        <path fill="#FFF" d="M169.008 161.713c-.47 0-.937.013-1.406.026l.002-.026h-13.647l.002-.023c-5.624-.29-9.628-4.945-9.026-10.646.6-5.7 5.589-10.357 11.273-10.648h13.859l-7.848-35.533h-2.878l-.001.016c-.4-.009-.801-.016-1.204-.016-25.62 0-48.571 20.675-51.263 46.178-2.693 25.502 15.893 46.176 41.512 46.176.402 0 .802-.01 1.203-.022l-.005.04h13.899c5.598.311 9.578 4.953 8.977 10.635-.6 5.7-5.587 10.354-11.27 10.646h-13.853l7.844 35.52h2.878v-.016a48 48 0 0 0 1.204.016c25.61 0 48.554-20.667 51.247-46.162 2.69-25.494-15.888-46.16-41.5-46.16"/>
        <g transform="translate(106 104.25)">
            <mask id="b" fill="#fff">
                <use xlink:href="#a"/>
            </mask>
            <path fill="#FFF" d="M-4.389 154.786h114.155V-4.387H-4.389z" mask="url(#b)"/>
        </g>
        <path fill="#FFF" d="M220.236 122.262c0-11.192-9.113-20.262-20.355-20.262s-20.354 9.07-20.354 20.262c0 11.19 9.112 20.262 20.354 20.262 11.242 0 20.355-9.072 20.355-20.262"/>
        <g transform="translate(179 101.25)">
            <mask id="d" fill="#fff">
                <use xlink:href="#c"/>
            </mask>
            <path fill="#FFF" d="M-4.474 46.275h50.709V-4.249H-4.474z" mask="url(#d)"/>
        </g>
        <path fill="#FFF" d="M117.355 216.422c-11.244 0-20.355 9.07-20.355 20.262 0 11.19 9.112 20.262 20.355 20.262 11.241 0 20.354-9.071 20.354-20.262 0-11.192-9.113-20.262-20.355-20.262"/>
        <g transform="translate(97 216.25)">
            <mask id="f" fill="#fff">
                <use xlink:href="#e"/>
            </mask>
            <path fill="#FFF" d="M-5 45.695h50.709V-4.829H-5z" mask="url(#f)"/>
        </g>
        <path fill="#FFF" d="M364.367 194.766c1.008-9.552 9.605-17.295 19.202-17.295 9.595 0 16.558 7.743 15.548 17.295-1.009 9.553-9.605 17.296-19.2 17.296-9.598 0-16.558-7.743-15.55-17.296m-31.716.991c-2.848 26.99 16.82 48.867 43.931 48.867 27.113 0 51.402-21.878 54.25-48.867 2.85-26.988-16.818-48.867-43.93-48.867-27.113 0-51.402 21.88-54.25 48.867"/>
        <g transform="translate(332 146.25)">
            <mask id="h" fill="#fff">
                <use xlink:href="#g"/>
            </mask>
            <path fill="#FFF" d="M-4.623 103.375h108.73V-4.36H-4.623z" mask="url(#h)"/>
        </g>
        <path fill="#FFF" d="M230.266 149.475L216.88 273.19h33.41l10.224-93.798H275c8.597 0 14.834 6.937 13.93 15.495-.903 8.557-8.604 15.495-17.2 15.495h-7.248l6.297 30.095c12.623-.73 25.378-4.664 33.467-11.81 9.005-7.954 14.271-19.165 15.8-33.63 1.527-14.463-1.373-25.673-8.699-33.63-7.327-7.953-15.08-11.932-30.446-11.932h-50.634z"/>
        <g transform="translate(216 149.25)">
            <mask id="j" fill="#fff">
                <use xlink:href="#i"/>
            </mask>
            <path fill="#FFF" d="M-4.121 128.94H109.44V-4.775H-4.121z" mask="url(#j)"/>
        </g>
        <path fill="#FFF" d="M590.21 149.475h-23.233l2.9-27.473-34.67 10.846-1.756 16.627h-19.262l6.552 29.797h9.564l-6.671 62.369h33.526l6.67-62.37h32.934z"/>
        <g transform="translate(514 121.25)">
            <mask id="l" fill="#fff">
                <use xlink:href="#k"/>
            </mask>
            <path fill="#FFF" d="M-4.812 125.39h92.575V-4.249H-4.812z" mask="url(#l)"/>
        </g>
        <path fill="#FFF" d="M662.115 149.475l-17.849 42.27-9.334-42.27H602.2l20.575 92.173-13.499 31.602h32.734l54.037-123.775z"/>
        <g transform="translate(602 149.25)">
            <mask id="n" fill="#fff">
                <use xlink:href="#m"/>
            </mask>
            <path fill="#FFF" d="M-4.801 129H99.046V-4.775H-4.801z" mask="url(#n)"/>
        </g>
        <path fill="#FFF" d="M487.945 149.34c-22.487-.042-42.659 18.198-45.023 40.59l-5.544 51.91h33.525l5.307-49.668c.755-7.135 7.16-12.926 14.328-12.957l18.177-.052-6.444-29.689-14.326-.134z"/>
        <g transform="translate(437 149.25)">
            <mask id="p" fill="#fff">
                <use xlink:href="#o"/>
            </mask>
            <path fill="#FFF" d="M-4.622 97.591h81.337v-102.5H-4.622z" mask="url(#p)"/>
        </g>
        <path fill="#FFF" d="M978.692 149.802h-18.445l2.901-27.473-34.67 10.848-1.757 16.625H907.46l6.551 29.797h9.565l-6.67 62.072h33.525l6.67-62.072h28.145z"/>
        <g transform="translate(907 122.25)">
            <mask id="r" fill="#fff">
                <use xlink:href="#q"/>
            </mask>
            <path fill="#FFF" d="M-4.541 124.421h87.786V-4.921H-4.541z" mask="url(#r)"/>
        </g>
        <g fill="#FFF">
            <path d="M870.957 183.786c.099-.356.144-.739.129-1.155l-.034-.977c-.103-2.962-1.225-5.332-3.366-7.11-2.141-1.78-5.064-2.67-8.774-2.67-2.359 0-4.452.416-6.277 1.246-1.826.83-3.393 1.836-4.7 3.021-1.308 1.186-2.36 2.458-3.156 3.821-.796 1.364-1.342 2.64-1.636 3.824h27.814zm-30.117 20.845c-.101.35-.142.76-.126 1.226.069 1.988 1.63 3.591 2.683 4.818a12.407 12.407 0 0 0 3.812 2.977 16.522 16.522 0 0 0 4.775 1.576c1.697.293 3.218.44 4.567.44 2.808 0 5.546-.496 8.209-1.49 2.662-.99 5.024-2.54 7.088-4.642l26.086 18.218c-5.632 6.19-12.17 10.51-19.614 12.962-7.445 2.452-15.213 3.678-23.304 3.678-6.295 0-12.31-.876-18.044-2.628-5.738-1.75-10.772-4.378-15.108-7.88-4.336-3.505-7.831-7.854-10.481-13.052-2.654-5.194-4.101-11.298-4.343-18.305-.271-7.822.824-15.152 3.285-21.984 2.461-6.83 6.049-12.757 10.765-17.78 4.715-5.019 10.421-8.96 17.123-11.823 6.699-2.86 14.151-4.292 22.356-4.292 6.517 0 12.395.964 17.632 2.89 5.235 1.927 9.712 4.672 13.434 8.233 3.718 3.564 6.649 7.883 8.793 12.963 2.14 5.08 3.323 10.773 3.541 17.08.089 2.57-.012 5.371-.3 8.407-.289 3.038-.782 5.84-1.479 8.408h-61.35zM761.878 150.218c-.75 1.413-1.745 2.525-2.983 3.332-1.241.81-2.635 1.351-4.187 1.62a26.954 26.954 0 0 1-4.588.403H739l1.934-19.607h10.078c3.357 0 6.137.674 8.34 2.022 2.2 1.347 3.369 3.57 3.504 6.668.098 2.295-.23 4.148-.978 5.562m34.274 40.721c-1.181-3.27-2.725-6.13-4.636-8.584-1.91-2.45-4.076-4.43-6.492-5.943-2.417-1.508-4.951-2.577-7.603-3.205l-.017-.378c6.689-2.143 12.124-6.087 16.306-11.829 4.183-5.738 6.075-13.216 5.677-22.426-.235-5.425-1.444-9.998-3.627-13.72-2.187-3.72-4.97-6.748-8.35-9.083-3.383-2.332-7.12-4.006-11.21-5.016-4.091-1.009-8.161-1.514-12.206-1.514h-53.158l-14.731 133.76h34.487l3.476-33.08H734l1.279-11.528.883-8.393.032.154.154-1.376h11.668c3.887 0 6.899.825 9.03 2.47 2.13 1.65 3.26 3.986 3.39 7.014.104 2.372-.271 4.317-1.121 5.83a9.167 9.167 0 0 1-3.535 3.556c-1.507.86-3.284 1.451-5.328 1.778a39.579 39.579 0 0 1-6.328.494h-3.727l7.03 33.08h2.655c7.22 0 13.852-.88 19.902-2.639 6.049-1.759 11.214-4.37 15.496-7.829 4.28-3.46 7.54-7.767 9.778-12.923 2.238-5.155 3.21-11.129 2.918-17.919-.17-3.897-.844-7.48-2.024-10.75"/>
        </g>
    </g>
</svg>
