<?xml version="1.0" encoding="UTF-8"?>
<svg width="24px" height="24px" viewBox="0 0 24 24" version="1.1" xmlns="http://www.w3.org/2000/svg" xmlns:xlink="http://www.w3.org/1999/xlink">
    <!-- Generator: sketchtool 48.2 (47327) - http://www.bohemiancoding.com/sketch -->
    <title>064E1B85-55A5-4305-8A5D-5B5A6FECAFA2</title>
    <desc>Created with sketchtool.</desc>
    <defs></defs>
    <g id="框错误提示" stroke="none" stroke-width="1" fill="none" fill-rule="evenodd" transform="translate(-12.000000, -12.000000)" opacity="0.600000024">
        <g id="Group-2">
            <g id="长框">
                <g id="ic_credit_card_black_36px" transform="translate(12.000000, 12.000000)">
                    <polygon id="Shape" points="0 0 24 0 24 24 0 24"></polygon>
                    <path d="M20,4 L4,4 C2.89,4 2.01,4.89 2.01,6 L2,18 C2,19.11 2.89,20 4,20 L20,20 C21.11,20 22,19.11 22,18 L22,6 C22,4.89 21.11,4 20,4 Z M20,18 L4,18 L4,12 L20,12 L20,18 Z M20,8 L4,8 L4,6 L20,6 L20,8 Z" id="Shape" fill="#0D9737" fill-rule="nonzero"></path>
                </g>
            </g>
        </g>
    </g>
</svg>