<?xml version="1.0" encoding="UTF-8"?>
<svg width="26px" height="26px" viewBox="0 0 26 26" version="1.1" xmlns="http://www.w3.org/2000/svg" xmlns:xlink="http://www.w3.org/1999/xlink">
    <!-- Generator: sketchtool 49.1 (51147) - http://www.bohemiancoding.com/sketch -->
    <title>65674AF2-BBC7-4F19-BB04-85E2571F1419</title>
    <desc>Created with sketchtool.</desc>
    <defs></defs>
    <g id="Page-1" stroke="none" stroke-width="1" fill="none" fill-rule="evenodd">
        <g id="百万提示-copy" transform="translate(-96.000000, -257.000000)" fill="#FFA600" fill-rule="nonzero" stroke="#FFA600">
            <g id="Group-2" transform="translate(109.000000, 270.000000) scale(-1, 1) translate(-109.000000, -270.000000) translate(97.000000, 258.000000)">
                <path d="M12.0591643,0 C5.47537071,0 0.140638603,5.3736 0.140638603,12 C0.140638603,18.6264 5.47537071,24 12.0591643,24 C18.6405742,24 23.97769,18.6264 23.97769,12 C23.97769,5.3736 18.6405742,0 12.0591643,0 Z M12.0591643,22.2 C6.47414316,22.2 1.92841746,17.6256 1.92841746,12 C1.92841746,6.3744 6.47414316,1.8 12.0591643,1.8 C17.6441855,1.8 22.1899112,6.3744 22.1899112,12 C22.1899112,17.6256 17.6441855,22.2 12.0591643,22.2 Z" id="Shape"></path>
                <path d="M12.0591643,4.2984 C11.5657373,4.2984 11.1652749,4.7016 11.1652749,5.1984 L11.1652749,11.4984 L7.29175403,11.4984 C6.79832706,11.4984 6.3978646,11.9016 6.3978646,12.3984 C6.3978646,12.8952 6.79832706,13.2984 7.29175403,13.2984 L11.1652749,13.2984 L12.9530537,13.2984 L12.9530537,11.4984 L12.9530537,5.1984 C12.9530537,4.7016 12.5525913,4.2984 12.0591643,4.2984 Z" id="Shape"></path>
            </g>
        </g>
    </g>
</svg>