<?xml version="1.0" encoding="UTF-8"?>
<svg width="24px" height="24px" viewBox="0 0 24 24" version="1.1" xmlns="http://www.w3.org/2000/svg" xmlns:xlink="http://www.w3.org/1999/xlink">
    <!-- Generator: sketchtool 49.1 (51147) - http://www.bohemiancoding.com/sketch -->
    <title>5CA7C0A9-4DF8-486B-90DD-EAFBA7EB9AD0</title>
    <desc>Created with sketchtool.</desc>
    <defs>
        <path d="M6.45758929,6.27901786 C6.76339286,5.91294643 7.10491071,5.578125 7.47544643,5.27678571 L5.9375,3.73883929 C5.65848214,3.45982143 5.20535714,3.45982143 4.92857143,3.73883929 C4.64955357,4.01785714 4.64955357,4.47098214 4.92857143,4.74776786 L6.45758929,6.27901786 Z M4.77901786,10.9107143 C4.77901786,10.6361607 4.79464286,10.3638393 4.82366071,10.0959821 L2.71428571,10.0959821 C2.31919643,10.0959821 2,10.4151786 2,10.8102679 C2,11.2053571 2.31919643,11.5245536 2.71428571,11.5245536 L4.80580357,11.5245536 C4.78794643,11.3214286 4.77901786,11.1160714 4.77901786,10.9107143 Z M17.5535714,6.265625 L19.0691964,4.75 C19.3482143,4.47098214 19.3482143,4.01785714 19.0691964,3.74107143 C18.7901786,3.46205357 18.3370536,3.46205357 18.0602679,3.74107143 L16.5334821,5.26785714 C16.90625,5.56473214 17.2477679,5.89955357 17.5535714,6.265625 Z M12.703125,3.71205357 L12.703125,1.71428571 C12.703125,1.31919643 12.3839286,1 11.9888393,1 C11.59375,1 11.2745536,1.31919643 11.2745536,1.71428571 L11.2745536,3.71651786 C11.5200893,3.69196429 11.765625,3.67857143 12.0111607,3.67857143 C12.2455357,3.67857143 12.4754464,3.68973214 12.703125,3.71205357 Z M11.9888393,5.28571429 C8.66071429,5.28571429 5.96205357,7.984375 5.96205357,11.3125 C5.96205357,13.4977679 7.125,15.4107143 8.86383929,16.4665179 L8.86383929,18.1651786 C8.86383929,18.953125 9.50446429,19.59375 10.2924107,19.59375 L13.6852679,19.59375 C14.4732143,19.59375 15.1138393,18.953125 15.1138393,18.1651786 L15.1138393,16.4665179 C16.8526786,15.4084821 18.015625,13.4955357 18.015625,11.3125 C18.015625,7.984375 15.3169643,5.28571429 11.9888393,5.28571429 Z M21.2857143,10.0959821 L19.1986607,10.0959821 C19.2299107,10.3660714 19.2433036,10.6383929 19.2433036,10.9107143 C19.2433036,11.1183036 19.234375,11.3214286 19.2165179,11.5245536 L21.2857143,11.5245536 C21.6808036,11.5245536 22,11.2053571 22,10.8102679 C22,10.4151786 21.6808036,10.0959821 21.2857143,10.0959821 Z M11.9888393,23.5446429 C13.78125,23.5446429 14.1316964,22.2946429 14.1316964,22.2946429 L9.84598214,22.2946429 C9.84598214,22.2946429 10.1964286,23.5446429 11.9888393,23.5446429 Z M13.9196429,20.3303571 C14.265625,20.3303571 14.5446429,20.609375 14.5446429,20.9553571 C14.5446429,21.3013393 14.265625,21.5803571 13.9196429,21.5803571 L10.0803571,21.5803571 C9.734375,21.5803571 9.45535714,21.3013393 9.45535714,20.9553571 C9.45535714,20.609375 9.734375,20.3303571 10.0803571,20.3303571 L13.9196429,20.3303571 Z" id="path-1"></path>
    </defs>
    <g id="Symbols" stroke="none" stroke-width="1" fill="none" fill-rule="evenodd">
        <g id="Icon/24_ME-HowTo">
            <mask id="mask-2" fill="white">
                <use xlink:href="#path-1"></use>
            </mask>
            <use id="Mask" fill="#353A45" fill-rule="nonzero" xlink:href="#path-1"></use>
            <g id="_Color/Blue-Dark" mask="url(#mask-2)" fill="#ffffff">
                <rect id="Rectangle-4" x="0" y="0" width="24" height="24"></rect>
            </g>
        </g>
    </g>
</svg>
