<?xml version="1.0" encoding="UTF-8"?>
<svg width="18px" height="14px" viewBox="0 0 18 14" version="1.1" xmlns="http://www.w3.org/2000/svg" xmlns:xlink="http://www.w3.org/1999/xlink">
    <!-- Generator: sketchtool 49.1 (51147) - http://www.bohemiancoding.com/sketch -->
    <title>DE472B1B-3923-4C13-B905-FFF10DCA1466</title>
    <desc>Created with sketchtool.</desc>
    <defs></defs>
    <g id="Page-1" stroke="none" stroke-width="1" fill="none" fill-rule="evenodd">
        <g id="百万倒计时1" transform="translate(-322.000000, -100.000000)" fill="#FFFFFF" fill-rule="nonzero">
            <g id="静音" transform="translate(322.000000, 100.000000)">
                <path d="M8.19769762,0.208354029 L3.97041901,3.22480845 L1.32708207,3.22480845 C0.592231102,3.22480845 0.00742548596,3.78223778 0.00742548596,4.46995773 L0.00742548596,9.52035139 C0.00742548596,10.1987688 0.598295896,10.7655007 1.32708207,10.7655007 L3.97041901,10.7655007 L8.19769762,13.7819551 C8.78545788,14.2013078 9.25423542,13.9718336 9.25423542,13.2759762 L9.25423542,0.714221929 C9.25423542,0.0271307794 8.78114255,-0.2081321 8.19769762,0.208243065 L8.19769762,0.208354029 Z" id="Shape"></path>
                <path d="M16.3124903,7.5895535 L17.6561922,6.31113342 C18.1014687,5.88749009 18.1014687,5.20067635 17.6561922,4.77690357 C17.2109158,4.35326024 16.4890302,4.35326024 16.0436177,4.77690357 L14.6999158,6.05532365 L13.3562138,4.77690357 C12.9109374,4.35326024 12.1890518,4.35326024 11.7436393,4.77690357 C11.2982268,5.2005469 11.2983629,5.88736063 11.7436393,6.31113342 L13.0873413,7.5895535 L11.7436393,8.86797358 C11.2983629,9.29161691 11.2983629,9.97843065 11.7436393,10.4022034 C12.1889158,10.8258468 12.9108013,10.8258468 13.3562138,10.4022034 L14.6999158,9.12378336 L16.0436177,10.4022034 C16.4888942,10.8258468 17.2107797,10.8258468 17.6561922,10.4022034 C18.1014687,9.97856011 18.1014687,9.29174637 17.6561922,8.86797358 L16.3124903,7.5895535 Z" id="Shape"></path>
            </g>
        </g>
    </g>
</svg>