<?xml version="1.0" encoding="UTF-8"?>
<svg width="360px" height="188px" viewBox="0 0 360 188" version="1.1" xmlns="http://www.w3.org/2000/svg" xmlns:xlink="http://www.w3.org/1999/xlink">
    <!-- Generator: sketchtool 50.2 (55047) - http://www.bohemiancoding.com/sketch -->
    <title>0C3627D3-CDB0-4D7E-A65E-B85283EE6E88</title>
    <desc>Created with sketchtool.</desc>
    <defs>
        <linearGradient x1="50%" y1="7.69193798%" x2="50%" y2="100%" id="linearGradient-1">
            <stop stop-color="#0C00B6" stop-opacity="0.430961277" offset="0%"></stop>
            <stop stop-color="#00A6A3" offset="100%"></stop>
        </linearGradient>
        <radialGradient cx="50%" cy="50%" fx="50%" fy="50%" r="56.9255633%" id="radialGradient-2">
            <stop stop-color="#00FF9C" offset="0%"></stop>
            <stop stop-color="#3AF6B4" stop-opacity="0" offset="78.1874728%"></stop>
            <stop stop-color="#40FF9B" offset="100%"></stop>
        </radialGradient>
        <linearGradient x1="50%" y1="0%" x2="50%" y2="103.271374%" id="linearGradient-3">
            <stop stop-color="#00FFAF" offset="0%"></stop>
            <stop stop-color="#21F7D9" stop-opacity="0" offset="51.9802204%"></stop>
            <stop stop-color="#40F0FF" offset="100%"></stop>
        </linearGradient>
        <radialGradient cx="50%" cy="50%" fx="50%" fy="50%" r="102.386875%" id="radialGradient-4">
            <stop stop-color="#00FFE0" stop-opacity="0.612630208" offset="0%"></stop>
            <stop stop-color="#ACACAC" stop-opacity="0" offset="36.6939126%"></stop>
            <stop stop-color="#7B7B7B" stop-opacity="0" offset="63.1263767%"></stop>
            <stop stop-color="#000000" stop-opacity="0" offset="100%"></stop>
        </radialGradient>
        <radialGradient cx="50%" cy="50%" fx="50%" fy="50%" r="102.386875%" id="radialGradient-5">
            <stop stop-color="#00FF28" stop-opacity="0.612630208" offset="0%"></stop>
            <stop stop-color="#00FFB7" stop-opacity="0" offset="36.6939126%"></stop>
            <stop stop-color="#7B7B7B" stop-opacity="0" offset="63.1263767%"></stop>
            <stop stop-color="#000000" stop-opacity="0" offset="100%"></stop>
        </radialGradient>
        <radialGradient cx="50%" cy="50%" fx="50%" fy="50%" r="102.386875%" id="radialGradient-6">
            <stop stop-color="#0042FF" stop-opacity="0.612630208" offset="0%"></stop>
            <stop stop-color="#00FFB7" stop-opacity="0" offset="36.6939126%"></stop>
            <stop stop-color="#7B7B7B" stop-opacity="0" offset="63.1263767%"></stop>
            <stop stop-color="#000000" stop-opacity="0" offset="100%"></stop>
        </radialGradient>
        <radialGradient cx="50%" cy="50%" fx="50%" fy="50%" r="102.386875%" id="radialGradient-7">
            <stop stop-color="#B200FF" stop-opacity="0.347118433" offset="0%"></stop>
            <stop stop-color="#5F00FF" stop-opacity="0" offset="35.2691474%"></stop>
            <stop stop-color="#7B7B7B" stop-opacity="0" offset="63.1263767%"></stop>
            <stop stop-color="#000000" stop-opacity="0" offset="100%"></stop>
        </radialGradient>
        <filter x="-34.6%" y="-51.0%" width="169.2%" height="202.1%" filterUnits="objectBoundingBox" id="filter-8">
            <feGaussianBlur stdDeviation="6.13055154 0" in="SourceGraphic"></feGaussianBlur>
        </filter>
        <filter x="-34.8%" y="-51.0%" width="169.7%" height="202.1%" filterUnits="objectBoundingBox" id="filter-9">
            <feGaussianBlur stdDeviation="6.13055154 0" in="SourceGraphic"></feGaussianBlur>
        </filter>
        <filter x="-36.1%" y="-51.0%" width="172.2%" height="202.1%" filterUnits="objectBoundingBox" id="filter-10">
            <feGaussianBlur stdDeviation="6.13055154 0" in="SourceGraphic"></feGaussianBlur>
        </filter>
        <filter x="-30.5%" y="-51.0%" width="161.0%" height="202.1%" filterUnits="objectBoundingBox" id="filter-11">
            <feGaussianBlur stdDeviation="6.13055154 0" in="SourceGraphic"></feGaussianBlur>
        </filter>
        <linearGradient x1="13.5931797%" y1="50%" x2="90.195321%" y2="50%" id="linearGradient-12">
            <stop stop-color="#00F9FF" offset="0%"></stop>
            <stop stop-color="#00F7FF" stop-opacity="0" offset="100%"></stop>
        </linearGradient>
        <linearGradient x1="90.195321%" y1="50%" x2="13.5931797%" y2="50%" id="linearGradient-13">
            <stop stop-color="#00F9FF" offset="0%"></stop>
            <stop stop-color="#00F7FF" stop-opacity="0" offset="100%"></stop>
        </linearGradient>
        <circle id="path-14" cx="23.92479" cy="34.366518" r="2.243862"></circle>
        <filter x="-167.1%" y="-167.1%" width="434.2%" height="434.2%" filterUnits="objectBoundingBox" id="filter-15">
            <feOffset dx="0" dy="0" in="SourceAlpha" result="shadowOffsetOuter1"></feOffset>
            <feGaussianBlur stdDeviation="2.5" in="shadowOffsetOuter1" result="shadowBlurOuter1"></feGaussianBlur>
            <feColorMatrix values="0 0 0 0 0   0 0 0 0 1   0 0 0 0 0.594769022  0 0 0 1 0" type="matrix" in="shadowBlurOuter1"></feColorMatrix>
        </filter>
        <circle id="path-16" cx="16.4137572" cy="110.941261" r="1.3463172"></circle>
        <filter x="-278.5%" y="-278.5%" width="657.1%" height="657.1%" filterUnits="objectBoundingBox" id="filter-17">
            <feOffset dx="0" dy="0" in="SourceAlpha" result="shadowOffsetOuter1"></feOffset>
            <feGaussianBlur stdDeviation="2.5" in="shadowOffsetOuter1" result="shadowBlurOuter1"></feGaussianBlur>
            <feColorMatrix values="0 0 0 0 0   0 0 0 0 1   0 0 0 0 0.594769022  0 0 0 1 0" type="matrix" in="shadowBlurOuter1"></feColorMatrix>
        </filter>
        <circle id="path-18" cx="129.787837" cy="86.3768772" r="1.3463172"></circle>
        <filter x="-278.5%" y="-278.5%" width="657.1%" height="657.1%" filterUnits="objectBoundingBox" id="filter-19">
            <feOffset dx="0" dy="0" in="SourceAlpha" result="shadowOffsetOuter1"></feOffset>
            <feGaussianBlur stdDeviation="2.5" in="shadowOffsetOuter1" result="shadowBlurOuter1"></feGaussianBlur>
            <feColorMatrix values="0 0 0 0 0   0 0 0 0 0.879245924   0 0 0 0 1  0 0 0 1 0" type="matrix" in="shadowBlurOuter1"></feColorMatrix>
        </filter>
        <linearGradient x1="100%" y1="50%" x2="0%" y2="50%" id="linearGradient-20">
            <stop stop-color="#09F8B1" offset="0%"></stop>
            <stop stop-color="#07E3C0" stop-opacity="0.488762455" offset="17.3107329%"></stop>
            <stop stop-color="#02A1EE" stop-opacity="0.315104167" offset="78.6388579%"></stop>
            <stop stop-color="#0089FF" offset="100%"></stop>
        </linearGradient>
        <linearGradient x1="50%" y1="0%" x2="50%" y2="100%" id="linearGradient-21">
            <stop stop-color="#20FF00" stop-opacity="0" offset="0%"></stop>
            <stop stop-color="#3BFFCD" stop-opacity="0.519328035" offset="51.9328035%"></stop>
            <stop stop-color="#00C4FF" stop-opacity="0" offset="100%"></stop>
        </linearGradient>
        <text id="text-22" font-family="Roboto-Black, Roboto" font-size="26.926344" font-weight="700" fill="#21FF00">
            <tspan x="3.15176699" y="53.34352">+</tspan>
        </text>
        <filter x="-106.7%" y="-43.8%" width="313.3%" height="200.0%" filterUnits="objectBoundingBox" id="filter-23">
            <feOffset dx="0" dy="2" in="SourceAlpha" result="shadowOffsetOuter1"></feOffset>
            <feGaussianBlur stdDeviation="5" in="shadowOffsetOuter1" result="shadowBlurOuter1"></feGaussianBlur>
            <feColorMatrix values="0 0 0 0 0   0 0 0 0 1   0 0 0 0 0.137907609  0 0 0 1 0" type="matrix" in="shadowBlurOuter1"></feColorMatrix>
        </filter>
        <linearGradient x1="4.24287449%" y1="0%" x2="101.464964%" y2="0%" id="linearGradient-24">
            <stop stop-color="#FFFFFF" stop-opacity="0" offset="0%"></stop>
            <stop stop-color="#FFFFFF" offset="50.9131724%"></stop>
            <stop stop-color="#FFFFFF" stop-opacity="0" offset="100%"></stop>
        </linearGradient>
        <radialGradient cx="50%" cy="0%" fx="50%" fy="0%" r="130.526014%" gradientTransform="translate(0.500000,0.000000),scale(0.685723,1.000000),rotate(84.163025),translate(-0.500000,-0.000000)" id="radialGradient-25">
            <stop stop-color="#F1FF00" offset="0%"></stop>
            <stop stop-color="#0070FF" stop-opacity="0.815472129" offset="13.5483227%"></stop>
            <stop stop-color="#28FF05" offset="35.0784617%"></stop>
            <stop stop-color="#FCCC04" offset="59.5979992%"></stop>
            <stop stop-color="#FAFF00" offset="72.6672491%"></stop>
            <stop stop-color="#F8028D" offset="100%"></stop>
        </radialGradient>
        <linearGradient x1="0%" y1="70.302409%" x2="76.1341799%" y2="5.66336222%" id="linearGradient-26">
            <stop stop-color="#00FFFB" stop-opacity="0.583616395" offset="0%"></stop>
            <stop stop-color="#00FF3B" offset="100%"></stop>
        </linearGradient>
        <linearGradient x1="0%" y1="50%" x2="100%" y2="50%" id="linearGradient-27">
            <stop stop-color="#00FFCF" offset="0%"></stop>
            <stop stop-color="#00FF7B" stop-opacity="0.381283967" offset="100%"></stop>
        </linearGradient>
        <linearGradient x1="100%" y1="50%" x2="-21.9972292%" y2="50%" id="linearGradient-28">
            <stop stop-color="#00FF9D" offset="0%"></stop>
            <stop stop-color="#006CFF" stop-opacity="0" offset="100%"></stop>
        </linearGradient>
    </defs>
    <g id="Symbols" stroke="none" stroke-width="1" fill="none" fill-rule="evenodd">
        <g id="3-img">
            <g transform="translate(107.000000, 10.000000)">
                <g id="Group-27">
                    <g id="Group-23">
                        <circle id="Oval-5-Copy-4" fill="url(#linearGradient-1)" opacity="0.300000012" cx="72.3213504" cy="82.7630784" r="43.0821504"></circle>
                        <circle id="Oval-5-Copy-5" stroke="url(#radialGradient-2)" stroke-width="11.6680824" cx="73.52595" cy="82.07811" r="47.121102"></circle>
                        <circle id="Oval-5-Copy-6" stroke="url(#linearGradient-3)" stroke-width="0.8975448" cx="73.3369932" cy="81.8891532" r="50.7112812"></circle>
                        <circle id="Oval-3-Copy-16" fill="url(#radialGradient-4)" cx="122.631098" cy="108.508442" r="20.6435304"></circle>
                        <circle id="Oval-3-Copy-17" fill="url(#radialGradient-5)" cx="85.7845224" cy="20.6435304" r="20.6435304"></circle>
                        <circle id="Oval-3-Copy-25" fill="url(#radialGradient-6)" opacity="0.300000012" cx="102.45996" cy="89.282088" r="44.87724"></circle>
                        <circle id="Oval-3-Copy-26" fill="url(#radialGradient-7)" cx="63.3659992" cy="110" r="63"></circle>
                        <path d="M59.127585,57.631824 L59.127585,91.7385264 L49.5653784,91.7385264 L49.5653784,69.3896007 C48.0180881,70.5486091 46.5211071,71.4864769 45.0743906,72.2032321 C43.6276741,72.9199873 41.8135034,73.606232 39.631824,74.2619867 L39.631824,66.6217194 C42.8501879,65.599962 45.3490244,64.3723465 47.1284083,62.938836 C48.9077922,61.5053256 50.3003326,59.7363393 51.3060714,57.631824 L59.127585,57.631824 Z M68.6611328,75.6171875 L70.8339844,57.453125 L91.6103516,57.453125 L91.6103516,63.8496094 L77.5234375,63.8496094 L76.7177734,70.9052734 C77.3037139,70.5634749 78.0727491,70.2623711 79.0249023,70.0019531 C79.9770555,69.7415352 80.9088496,69.6113281 81.8203125,69.6113281 C85.3522312,69.6113281 88.066234,70.6570533 89.9624023,72.7485352 C91.8585707,74.840017 92.8066406,77.7737441 92.8066406,81.5498047 C92.8066406,83.8284619 92.2980194,85.8914296 91.2807617,87.7387695 C90.263504,89.5861095 88.8352957,91.0061799 86.9960937,91.9990234 C85.1568918,92.9918669 82.984062,93.4882812 80.4775391,93.4882812 C78.2477102,93.4882812 76.1562598,93.0284877 74.203125,92.1088867 C72.2499902,91.1892858 70.7200576,89.9279052 69.6132812,88.324707 C68.5065049,86.7215089 67.9612629,84.9108174 67.9775391,82.8925781 L76.2294922,82.8925781 C76.3108728,84.194668 76.7259077,85.2281863 77.4746094,85.9931641 C78.223311,86.7581418 79.2080017,87.140625 80.4287109,87.140625 C83.1956519,87.140625 84.5791016,85.0898643 84.5791016,80.9882812 C84.5791016,77.1959446 82.8864102,75.2998047 79.5009766,75.2998047 C77.580394,75.2998047 76.1481167,75.9182881 75.2041016,77.1552734 L68.6611328,75.6171875 Z" id="12-copy-7" fill="#FF0000" filter="url(#filter-8)"></path>
                        <path d="M69.520209,57.631824 L69.520209,91.7385264 L59.9580024,91.7385264 L59.9580024,69.3896007 C58.4107121,70.5486091 56.9137311,71.4864769 55.4670146,72.2032321 C54.0202981,72.9199873 52.2061274,73.606232 50.024448,74.2619867 L50.024448,66.6217194 C53.2428119,65.599962 55.7416484,64.3723465 57.5210323,62.938836 C59.3004162,61.5053256 60.6929566,59.7363393 61.6986954,57.631824 L69.520209,57.631824 Z M78.6611328,75.6171875 L80.8339844,57.453125 L101.610352,57.453125 L101.610352,63.8496094 L87.5234375,63.8496094 L86.7177734,70.9052734 C87.3037139,70.5634749 88.0727491,70.2623711 89.0249023,70.0019531 C89.9770555,69.7415352 90.9088496,69.6113281 91.8203125,69.6113281 C95.3522312,69.6113281 98.066234,70.6570533 99.9624023,72.7485352 C101.858571,74.840017 102.806641,77.7737441 102.806641,81.5498047 C102.806641,83.8284619 102.298019,85.8914296 101.280762,87.7387695 C100.263504,89.5861095 98.8352957,91.0061799 96.9960937,91.9990234 C95.1568918,92.9918669 92.984062,93.4882812 90.4775391,93.4882812 C88.2477102,93.4882812 86.1562598,93.0284877 84.203125,92.1088867 C82.2499902,91.1892858 80.7200576,89.9279052 79.6132812,88.324707 C78.5065049,86.7215089 77.9612629,84.9108174 77.9775391,82.8925781 L86.2294922,82.8925781 C86.3108728,84.194668 86.7259077,85.2281863 87.4746094,85.9931641 C88.223311,86.7581418 89.2080017,87.140625 90.4287109,87.140625 C93.1956519,87.140625 94.5791016,85.0898643 94.5791016,80.9882812 C94.5791016,77.1959446 92.8864102,75.2998047 89.5009766,75.2998047 C87.580394,75.2998047 86.1481167,75.9182881 85.2041016,77.1552734 L78.6611328,75.6171875 Z" id="12-copy-8" fill="#FF9800" opacity="0.400000006" filter="url(#filter-9)"></path>
                        <path d="M72.354561,57.631824 L72.354561,91.7385264 L62.7923544,91.7385264 L62.7923544,69.3896007 C61.2450641,70.5486091 59.7480831,71.4864769 58.3013666,72.2032321 C56.8546501,72.9199873 55.0404794,73.606232 52.8588,74.2619867 L52.8588,66.6217194 C56.0771639,65.599962 58.5760004,64.3723465 60.3553843,62.938836 C62.1347682,61.5053256 63.5273086,59.7363393 64.5330474,57.631824 L72.354561,57.631824 Z M79.6611328,75.6171875 L81.8339844,57.453125 L102.610352,57.453125 L102.610352,63.8496094 L88.5234375,63.8496094 L87.7177734,70.9052734 C88.3037139,70.5634749 89.0727491,70.2623711 90.0249023,70.0019531 C90.9770555,69.7415352 91.9088496,69.6113281 92.8203125,69.6113281 C96.3522312,69.6113281 99.066234,70.6570533 100.962402,72.7485352 C102.858571,74.840017 103.806641,77.7737441 103.806641,81.5498047 C103.806641,83.8284619 103.298019,85.8914296 102.280762,87.7387695 C101.263504,89.5861095 99.8352957,91.0061799 97.9960937,91.9990234 C96.1568918,92.9918669 93.984062,93.4882812 91.4775391,93.4882812 C89.2477102,93.4882812 87.1562598,93.0284877 85.203125,92.1088867 C83.2499902,91.1892858 81.7200576,89.9279052 80.6132812,88.324707 C79.5065049,86.7215089 78.9612629,84.9108174 78.9775391,82.8925781 L87.2294922,82.8925781 C87.3108728,84.194668 87.7259077,85.2281863 88.4746094,85.9931641 C89.223311,86.7581418 90.2080017,87.140625 91.4287109,87.140625 C94.1956519,87.140625 95.5791016,85.0898643 95.5791016,80.9882812 C95.5791016,77.1959446 93.8864102,75.2998047 90.5009766,75.2998047 C88.580394,75.2998047 87.1481167,75.9182881 86.2041016,77.1552734 L79.6611328,75.6171875 Z" id="12-copy-9" fill="#FFBB00" opacity="0.400000006" filter="url(#filter-10)"></path>
                        <path d="M61.961937,57.631824 L61.961937,91.7385264 L52.3997304,91.7385264 L52.3997304,69.3896007 C50.8524401,70.5486091 49.3554591,71.4864769 47.9087426,72.2032321 C46.4620261,72.9199873 44.6478554,73.606232 42.466176,74.2619867 L42.466176,66.6217194 C45.6845399,65.599962 48.1833764,64.3723465 49.9627603,62.938836 C51.7421442,61.5053256 53.1346846,59.7363393 54.1404234,57.631824 L61.961937,57.631824 Z M78.6611328,75.6171875 L80.8339844,57.453125 L101.610352,57.453125 L101.610352,63.8496094 L87.5234375,63.8496094 L86.7177734,70.9052734 C87.3037139,70.5634749 88.0727491,70.2623711 89.0249023,70.0019531 C89.9770555,69.7415352 90.9088496,69.6113281 91.8203125,69.6113281 C95.3522312,69.6113281 98.066234,70.6570533 99.9624023,72.7485352 C101.858571,74.840017 102.806641,77.7737441 102.806641,81.5498047 C102.806641,83.8284619 102.298019,85.8914296 101.280762,87.7387695 C100.263504,89.5861095 98.8352957,91.0061799 96.9960938,91.9990234 C95.1568918,92.9918669 92.984062,93.4882812 90.4775391,93.4882812 C88.2477102,93.4882812 86.1562598,93.0284877 84.203125,92.1088867 C82.2499902,91.1892858 80.7200576,89.9279052 79.6132813,88.324707 C78.5065049,86.7215089 77.9612629,84.9108174 77.9775391,82.8925781 L86.2294922,82.8925781 C86.3108728,84.194668 86.7259077,85.2281863 87.4746094,85.9931641 C88.223311,86.7581418 89.2080017,87.140625 90.4287109,87.140625 C93.1956519,87.140625 94.5791016,85.0898643 94.5791016,80.9882812 C94.5791016,77.1959446 92.8864102,75.2998047 89.5009766,75.2998047 C87.580394,75.2998047 86.1481167,75.9182881 85.2041016,77.1552734 L78.6611328,75.6171875 Z" id="12-copy-10" fill="#00FF9C" opacity="0.319999993" filter="url(#filter-11)"></path>
                        <path d="M62.906721,57.631824 L62.906721,91.7385264 L53.3445144,91.7385264 L53.3445144,69.3896007 C51.7972241,70.5486091 50.3002431,71.4864769 48.8535266,72.2032321 C47.4068101,72.9199873 45.5926394,73.606232 43.41096,74.2619867 L43.41096,66.6217194 C46.6293239,65.599962 49.1281604,64.3723465 50.9075443,62.938836 C52.6869282,61.5053256 54.0794686,59.7363393 55.0852074,57.631824 L62.906721,57.631824 Z M72.6611328,75.6171875 L74.8339844,57.453125 L95.6103516,57.453125 L95.6103516,63.8496094 L81.5234375,63.8496094 L80.7177734,70.9052734 C81.3037139,70.5634749 82.0727491,70.2623711 83.0249023,70.0019531 C83.9770555,69.7415352 84.9088496,69.6113281 85.8203125,69.6113281 C89.3522312,69.6113281 92.066234,70.6570533 93.9624023,72.7485352 C95.8585707,74.840017 96.8066406,77.7737441 96.8066406,81.5498047 C96.8066406,83.8284619 96.2980194,85.8914296 95.2807617,87.7387695 C94.263504,89.5861095 92.8352957,91.0061799 90.9960937,91.9990234 C89.1568918,92.9918669 86.984062,93.4882812 84.4775391,93.4882812 C82.2477102,93.4882812 80.1562598,93.0284877 78.203125,92.1088867 C76.2499902,91.1892858 74.7200576,89.9279052 73.6132812,88.324707 C72.5065049,86.7215089 71.9612629,84.9108174 71.9775391,82.8925781 L80.2294922,82.8925781 C80.3108728,84.194668 80.7259077,85.2281863 81.4746094,85.9931641 C82.223311,86.7581418 83.2080017,87.140625 84.4287109,87.140625 C87.1956519,87.140625 88.5791016,85.0898643 88.5791016,80.9882812 C88.5791016,77.1959446 86.8864102,75.2998047 83.5009766,75.2998047 C81.580394,75.2998047 80.1481167,75.9182881 79.2041016,77.1552734 L72.6611328,75.6171875 Z" id="12-copy-11" fill="#FFAE00"></path>
                        <circle id="Oval-3-Copy-27" fill="url(#radialGradient-5)" cx="45.1588104" cy="65.9931624" r="20.6435304"></circle>
                        <rect id="Rectangle-15-Copy-24" fill="url(#linearGradient-12)" opacity="0.300000012" x="28.294416" y="20.785248" width="34.1067024" height="8.0779032" rx="4.0389516"></rect>
                        <rect id="Rectangle-15-Copy-25" fill="url(#linearGradient-12)" x="15.06744" y="118.098" width="26.0287992" height="5.3852688" rx="2.6926344"></rect>
                        <rect id="Rectangle-15-Copy-30" fill="url(#linearGradient-13)" x="108.601056" y="105.815808" width="34.1067024" height="5.3852688" rx="2.6926344"></rect>
                        <rect id="Rectangle-15-Copy-32" fill="url(#linearGradient-12)" opacity="0.5" x="39.631824" y="26.453952" width="20.6435304" height="5.3852688" rx="2.6926344"></rect>
                        <rect id="Rectangle-15-Copy-33" fill="url(#linearGradient-12)" x="29.2392" y="125.656272" width="16.1558064" height="3.5901792" rx="1.7950896"></rect>
                        <rect id="Rectangle-15-Copy-34" fill="url(#linearGradient-13)" x="106.711488" y="114.318864" width="20.6435304" height="3.5901792" rx="1.7950896"></rect>
                        <g id="Oval-2-Copy-14">
                            <use fill="black" fill-opacity="1" filter="url(#filter-15)" xlink:href="#path-14"></use>
                            <use fill="#00FF88" fill-rule="evenodd" xlink:href="#path-14"></use>
                        </g>
                        <g id="Oval-2-Copy-15">
                            <use fill="black" fill-opacity="1" filter="url(#filter-17)" xlink:href="#path-16"></use>
                            <use fill="#00FF88" fill-rule="evenodd" xlink:href="#path-16"></use>
                        </g>
                        <g id="Oval-2-Copy-16">
                            <use fill="black" fill-opacity="1" filter="url(#filter-19)" xlink:href="#path-18"></use>
                            <use fill="#00AAFF" fill-rule="evenodd" xlink:href="#path-18"></use>
                        </g>
                        <rect id="Rectangle-21-Copy-10" fill="url(#linearGradient-20)" x="53.803584" y="10.392624" width="37.6968816" height="16.1558064" rx="8.0779032"></rect>
                        <rect id="Rectangle-21-Copy-11" fill="url(#linearGradient-21)" x="68.920128" y="10.392624" width="1.7950896" height="16.1558064" rx="0.8975448"></rect>
                        <rect id="Rectangle-21-Copy-12" fill="url(#linearGradient-21)" x="80.257536" y="10.392624" width="1.7950896" height="16.1558064" rx="0.8975448"></rect>
                        <rect id="Rectangle-21-Copy-13" fill="url(#linearGradient-21)" x="63.251424" y="10.392624" width="1.7950896" height="16.1558064" rx="0.8975448"></rect>
                        <rect id="Rectangle-21-Copy-14" fill="url(#linearGradient-21)" x="74.588832" y="10.392624" width="1.7950896" height="16.1558064" rx="0.8975448"></rect>
                        <text id="seconds-copy-2" font-family="Roboto-Black, Roboto" font-size="10.7705376" font-weight="700" fill="#FFFFFF">
                            <tspan x="48.428741" y="110.147104">SECONDS</tspan>
                        </text>
                        <g id="+-copy-8" fill="#21FF00" fill-opacity="1">
                            <use filter="url(#filter-23)" xlink:href="#text-22"></use>
                            <use xlink:href="#text-22"></use>
                        </g>
                        <g id="Group-24" opacity="0.600000024" transform="translate(16.012224, 38.736144)" stroke="url(#linearGradient-24)" stroke-linecap="square" stroke-width="0.944784">
                            <path d="M0.0520778595,66.607272 L119.937129,66.607272" id="Line-2-Copy-32" opacity="0.100000001"></path>
                            <path d="M0.0520778595,26.926344 L119.937129,26.926344" id="Line-2-Copy-16" opacity="0.100000001"></path>
                            <path d="M18.9276648,5.196312 L92.5578538,5.196312" id="Line-2-Copy-8" opacity="0.100000001"></path>
                            <path d="M26.480196,88.337304 L86.89471,88.337304" id="Line-2-Copy-34" opacity="0.100000001"></path>
                            <path d="M0.0520778595,48.656376 L119.937129,48.656376" id="Line-2-Copy-17" opacity="0.100000001"></path>
                            <path d="M0.0520778595,72.275976 L119.937129,72.275976" id="Line-2-Copy-36" opacity="0.100000001"></path>
                            <path d="M0.0520778595,32.595048 L119.937129,32.595048" id="Line-2-Copy-18" opacity="0.100000001"></path>
                            <path d="M18.9276648,10.865016 L92.5578538,10.865016" id="Line-2-Copy-9" opacity="0.100000001"></path>
                            <path d="M33.5346664,93.061224 L76.999896,93.061224" id="Line-2-Copy-38" opacity="0.100000001"></path>
                            <path d="M0.0520778595,53.380296 L119.937129,53.380296" id="Line-2-Copy-19" opacity="0.100000001"></path>
                            <path d="M0.0520778595,77.94468 L119.937129,77.94468" id="Line-2-Copy-40" opacity="0.100000001"></path>
                            <path d="M0.0520778595,37.318968 L119.937129,37.318968" id="Line-2-Copy-20" opacity="0.100000001"></path>
                            <path d="M0.0520778595,16.53372 L119.937129,16.53372" id="Line-2-Copy-10" opacity="0.100000001"></path>
                            <path d="M0.0520778595,59.049 L119.937129,59.049" id="Line-2-Copy-21" opacity="0.100000001"></path>
                            <path d="M18.9276648,0.472392 L92.5578538,0.472392" id="Line-2-Copy-6" opacity="0.100000001"></path>
                            <path d="M26.480196,82.6686 L86.89471,82.6686" id="Line-2-Copy-44" opacity="0.100000001"></path>
                            <path d="M0.0520778595,42.987672 L119.937129,42.987672" id="Line-2-Copy-22" opacity="0.100000001"></path>
                            <path d="M0.0520778595,21.25764 L119.937129,21.25764" id="Line-2-Copy-11" opacity="0.100000001"></path>
                            <path d="M0.0520778595,63.77292 L119.937129,63.77292" id="Line-2-Copy-23" opacity="0.100000001"></path>
                            <path d="M18.9276648,3.306744 L92.5578538,3.306744" id="Line-2-Copy-7" opacity="0.100000001"></path>
                            <path d="M27.42498,85.502952 L87.839494,85.502952" id="Line-2-Copy-48" opacity="0.100000001"></path>
                            <path d="M0.996861859,45.822024 L120.881913,45.822024" id="Line-2-Copy-24" opacity="0.100000001"></path>
                            <path d="M0.996861859,24.091992 L120.881913,24.091992" id="Line-2-Copy-12" opacity="0.100000001"></path>
                            <path d="M0.996861859,66.607272 L120.881913,66.607272" id="Line-2-Copy-25" opacity="0.100000001"></path>
                            <path d="M0.0520778595,69.441624 L119.937129,69.441624" id="Line-2-Copy-52" opacity="0.100000001"></path>
                            <path d="M0.0520778595,29.760696 L119.937129,29.760696" id="Line-2-Copy-26" opacity="0.100000001"></path>
                            <path d="M18.9276648,8.030664 L92.5578538,8.030664" id="Line-2-Copy-13" opacity="0.100000001"></path>
                            <path d="M26.480196,91.171656 L86.89471,91.171656" id="Line-2-Copy-54" opacity="0.100000001"></path>
                            <path d="M0.0520778595,51.490728 L119.937129,51.490728" id="Line-2-Copy-27" opacity="0.100000001"></path>
                            <path d="M0.0520778595,75.110328 L119.937129,75.110328" id="Line-2-Copy-56" opacity="0.100000001"></path>
                            <path d="M0.0520778595,35.4294 L119.937129,35.4294" id="Line-2-Copy-28" opacity="0.100000001"></path>
                            <path d="M18.9276648,13.699368 L92.5578538,13.699368" id="Line-2-Copy-14" opacity="0.100000001"></path>
                            <path d="M0.0520778595,56.214648 L119.937129,56.214648" id="Line-2-Copy-29" opacity="0.100000001"></path>
                            <path d="M0.0520778595,79.834248 L119.937129,79.834248" id="Line-2-Copy-60" opacity="0.100000001"></path>
                            <path d="M0.0520778595,40.15332 L119.937129,40.15332" id="Line-2-Copy-30" opacity="0.100000001"></path>
                            <path d="M0.0520778595,18.423288 L119.937129,18.423288" id="Line-2-Copy-15" opacity="0.100000001"></path>
                            <path d="M0.0520778595,61.883352 L119.937129,61.883352" id="Line-2-Copy-31" opacity="0.100000001"></path>
                        </g>
                    </g>
                    <path d="M63.2167855,57.1536 L63.2167855,90.9792 L53.7027316,90.9792 L53.7027316,68.8144708 C52.163233,69.9639269 50.6737905,70.8940649 49.2343593,71.6049127 C47.7949281,72.3157605 45.989893,72.9963493 43.8192,73.6466994 L43.8192,66.069402 C47.0213571,65.0560658 49.5076101,63.8385681 51.2780335,62.4168724 C53.0484569,60.9951768 54.4339848,59.2407702 55.4346589,57.1536 L63.2167855,57.1536 Z M72.6611328,75.6171875 L74.8339844,57.453125 L95.6103516,57.453125 L95.6103516,63.8496094 L81.5234375,63.8496094 L80.7177734,70.9052734 C81.3037139,70.5634749 82.0727491,70.2623711 83.0249023,70.0019531 C83.9770555,69.7415352 84.9088496,69.6113281 85.8203125,69.6113281 C89.3522312,69.6113281 92.066234,70.6570533 93.9624023,72.7485352 C95.8585707,74.840017 96.8066406,77.7737441 96.8066406,81.5498047 C96.8066406,83.8284619 96.2980194,85.8914296 95.2807617,87.7387695 C94.263504,89.5861095 92.8352957,91.0061799 90.9960937,91.9990234 C89.1568918,92.9918669 86.984062,93.4882813 84.4775391,93.4882813 C82.2477102,93.4882813 80.1562598,93.0284877 78.203125,92.1088867 C76.2499902,91.1892858 74.7200576,89.9279052 73.6132812,88.324707 C72.5065049,86.7215089 71.9612629,84.9108174 71.9775391,82.8925781 L80.2294922,82.8925781 C80.3108728,84.194668 80.7259077,85.2281863 81.4746094,85.9931641 C82.223311,86.7581418 83.2080017,87.140625 84.4287109,87.140625 C87.1956519,87.140625 88.5791016,85.0898643 88.5791016,80.9882813 C88.5791016,77.1959446 86.8864102,75.2998047 83.5009766,75.2998047 C81.580394,75.2998047 80.1481167,75.9182881 79.2041016,77.1552734 L72.6611328,75.6171875 Z" id="12" fill="url(#radialGradient-25)"></path>
                </g>
                <g id="Group-2" transform="translate(133.000000, 52.000000)">
                    <path d="M6.50492105,0.876054354 L6.50479879,0.877579141 C6.46420774,0.876664269 6.42355555,0.876054354 6.38253658,0.876054354 C3.78122452,0.876054354 1.45066215,2.97239182 1.17740609,5.55836872 C0.903966643,8.14428462 2.79114509,10.2405611 5.39251828,10.2405611 C5.43329273,10.2405611 5.47388378,10.2393413 5.5145971,10.2383044 L5.51410805,10.2423298 L6.92531969,10.2423298 C7.49377786,10.2738624 7.89791562,10.7445945 7.83690678,11.3207198 C7.77595906,11.8986749 7.26967122,12.3706878 6.69259356,12.4002687 L5.28590562,12.4002687 L6.08244396,16.0019364 L6.37465066,16.0019364 L6.37471179,16.0002286 C6.41530285,16.0013264 6.45601617,16.0019364 6.49691288,16.0019364 C9.09743023,16.0019364 11.4270145,13.9063308 11.7003928,11.3211468 C11.9736489,8.73614575 10.0871429,6.64047919 7.48662552,6.64047919 C7.43894326,6.64047919 7.39150552,6.64182101 7.34394552,6.64316282 L7.34412891,6.64047919 L5.95840895,6.64047919 L5.95865347,6.63816152 C5.38756666,6.60870264 4.98104479,6.13675073 5.04211476,5.55867367 C5.10318474,4.9807186 5.60965597,4.50852272 6.18679477,4.47900285 L7.59403288,4.47900285 L6.79718888,0.876054354 L6.50492105,0.876054354 Z" id="Combined-Shape" fill="url(#linearGradient-26)"></path>
                    <path d="M8.5479227,2.70579815 C8.5479227,3.85109578 9.47846043,4.77950777 10.6263804,4.77950777 C11.7743003,4.77950777 12.7048381,3.85109578 12.7048381,2.70579815 C12.7048381,1.56037853 11.7743003,0.632088515 10.6263804,0.632088515 C9.47846043,0.632088515 8.5479227,1.56037853 8.5479227,2.70579815 Z" id="Clip-8" fill="url(#linearGradient-27)"></path>
                    <path d="M0.111829741,14.2941755 C0.111829741,15.4394731 1.04230634,16.3678851 2.19028743,16.3678851 C3.33820738,16.3678851 4.26874511,15.4394731 4.26874511,14.2941755 C4.26874511,13.1487559 3.33820738,12.2204659 2.19028743,12.2204659 C1.04230634,12.2204659 0.111829741,13.1487559 0.111829741,14.2941755 Z" id="Clip-11" fill="url(#linearGradient-28)"></path>
                </g>
            </g>
        </g>
    </g>
</svg>