<svg xmlns="http://www.w3.org/2000/svg" xmlns:xlink="http://www.w3.org/1999/xlink" width="24" height="24" viewBox="0 0 24 24">
    <defs>
        <path id="a" d="M0 11.944C-.03 18.571 5.304 23.969 11.917 24c6.612.03 11.997-5.317 12.028-11.944C23.975 5.429 18.641.03 12.028 0h-.056C5.385 0 .03 5.336 0 11.944z"/>
        <path id="c" d="M4.799 0v.001L4.689 0C2.358 0 .27 1.883.024 4.207-.221 6.53 1.47 8.413 3.802 8.413l.11-.002-.001.004h1.265c.51.028.872.45.817.968a1.11 1.11 0 0 1-1.026.97h-1.26l.713 3.236h.262v-.001l.11.001c2.33 0 4.419-1.883 4.664-4.205C9.7 7.06 8.01 5.179 5.679 5.179c-.043 0-.085 0-.128.002V5.18H4.31v-.002a.858.858 0 0 1-.821-.97 1.11 1.11 0 0 1 1.026-.97h1.261L5.061 0h-.262z"/>
        <path id="e" d="M0 1.863a1.863 1.863 0 1 0 3.726 0 1.863 1.863 0 0 0-3.726 0z"/>
        <path id="g" d="M0 1.863a1.863 1.863 0 1 0 3.726 0 1.863 1.863 0 0 0-3.726 0z"/>
    </defs>
    <g fill="none" fill-rule="evenodd">
        <g>
            <mask id="b" fill="#fff">
                <use xlink:href="#a"/>
            </mask>
            <path fill="#E41827" d="M-.274 24.274h24.493V-.274H-.274z" mask="url(#b)"/>
        </g>
        <g transform="translate(7.178 5.15)">
            <mask id="d" fill="#fff">
                <use xlink:href="#c"/>
            </mask>
            <path fill="#FFF" d="M-.274 13.863H9.753V-.274H-.274z" mask="url(#d)"/>
        </g>
        <g transform="translate(13.808 4.932)">
            <mask id="f" fill="#fff">
                <use xlink:href="#e"/>
            </mask>
            <path fill="#FFF" d="M-.274 4H4V-.274H-.274z" mask="url(#f)"/>
        </g>
        <g transform="translate(6.247 15.342)">
            <mask id="h" fill="#fff">
                <use xlink:href="#g"/>
            </mask>
            <path fill="#FFF" d="M-.274 4H4V-.274H-.274z" mask="url(#h)"/>
        </g>
    </g>
</svg>
