<?xml version="1.0" encoding="UTF-8"?>
<svg width="36px" height="36px" viewBox="0 0 36 36" version="1.1" xmlns="http://www.w3.org/2000/svg" xmlns:xlink="http://www.w3.org/1999/xlink">
    <!-- Generator: sketchtool 50.2 (55047) - http://www.bohemiancoding.com/sketch -->
    <title>4ED68A64-07F4-48DA-B47C-052F2F1AEB01</title>
    <desc>Created with sketchtool.</desc>
    <defs>
        <linearGradient x1="50%" y1="0%" x2="50%" y2="100%" id="linearGradient-1">
            <stop stop-color="#6CE383" offset="0%"></stop>
            <stop stop-color="#3AC34C" offset="100%"></stop>
        </linearGradient>
    </defs>
    <g id="Symbols" stroke="none" stroke-width="1" fill="none" fill-rule="evenodd">
        <g id="Icon/whatsapp-36" fill-rule="nonzero">
            <path d="M0.00997648235,36 L2.55330939,26.75625 C0.982014953,24.0446326 0.156717738,20.9684738 0.16064784,17.838 C0.164414636,8.00174999 8.20574625,0 18.0852687,0 C22.8803854,0.00225 27.3801862,1.86000001 30.7642654,5.23125 C34.1358388,8.57190957 36.0247406,13.1166175 36.0098896,17.85225 C36.0053694,27.68775 27.9640378,35.691 18.0852687,35.691 L18.0777351,35.691 C15.077868,35.6895 12.1299824,34.941 9.51206713,33.51975 L0.00997648235,36 Z" id="Shape" fill="url(#linearGradient-1)"></path>
            <path d="M13.5975529,10.4207059 C13.2346353,9.54879999 12.8656941,9.66701174 12.5908706,9.65270587 C12.3296,9.63990586 12.0314353,9.63764704 11.7325176,9.63764707 C11.4336,9.63764711 10.9494588,9.74908235 10.5391059,10.1970823 C10.1287529,10.6450823 8.97298825,11.7278118 8.97298825,13.9301647 C8.97298825,16.1332706 10.576753,18.2610823 10.8003765,18.559247 C11.024,18.8581647 13.9567059,23.3780706 18.4472471,25.3161412 C19.5149177,25.7769412 20.3484235,26.0525177 20.9989647,26.2588235 C22.071153,26.599153 23.0469647,26.5517177 23.8179765,26.4365177 C24.6778353,26.3077647 26.4660706,25.3537883 26.8395294,24.3087059 C27.2122353,23.2628706 27.2122353,22.3668706 27.1008,22.1801412 C26.9886118,21.9941647 26.690447,21.8819765 26.2424471,21.6576 C25.7952,21.4339765 23.594353,20.3512471 23.184,20.2021647 C22.773647,20.0523294 22.4754823,19.9777883 22.1765647,20.4257882 C21.8784,20.8737882 21.0208,21.8819765 20.7595294,22.1801412 C20.4982588,22.4790588 20.2369883,22.5167059 19.7897412,22.2930823 C19.3417412,22.0687059 17.8998588,21.5958588 16.1906824,20.0719059 C14.8594824,18.8852706 13.9612235,17.4192941 13.6999529,16.9712941 C13.4386823,16.5232941 13.6720941,16.2816 13.8957176,16.0579765 C14.0975059,15.8576941 14.3437176,15.5354353 14.5673412,15.2749176 C14.7917176,15.0128941 14.8662588,14.8261647 15.0153412,14.528 C15.1644235,14.2290824 15.0898824,13.9678118 14.9776941,13.7434353 C14.8662588,13.5198118 13.9710118,11.3174588 13.5975529,10.4214588 L13.5975529,10.4207059 Z" id="Shape" fill="#FFFFFF"></path>
        </g>
    </g>
</svg>