<?xml version="1.0" encoding="UTF-8"?>
<svg width="280px" height="130px" viewBox="0 0 280 130" version="1.1" xmlns="http://www.w3.org/2000/svg" xmlns:xlink="http://www.w3.org/1999/xlink">
    <!-- Generator: Sketch 51.2 (57519) - http://www.bohemiancoding.com/sketch -->
    <title>Pop/Cash-Card@1x</title>
    <desc>Created with Sketch.</desc>
    <defs>
        <linearGradient x1="34.5996826%" y1="-38.4874667%" x2="50%" y2="100%" id="linearGradient-1">
            <stop stop-color="#24E768" offset="0%"></stop>
            <stop stop-color="#20B24D" offset="100%"></stop>
        </linearGradient>
        <path d="M230,48 L230,117 C230,119.761424 227.761424,122 225,122 L5,122 C2.23857625,122 3.38176876e-16,119.761424 0,117 L0,48 C3.3137085,48 6,45.3137085 6,42 C6,38.6862915 3.3137085,36 0,36 L0,4 C-2.705415e-16,1.790861 1.790861,4.05812251e-16 4,0 L226,0 C228.209139,-4.05812251e-16 230,1.790861 230,4 L230,36 C226.686292,36 224,38.6862915 224,42 C224,45.3137085 226.686292,48 230,48 Z" id="path-2"></path>
        <filter x="-3.7%" y="-5.3%" width="107.4%" height="113.9%" filterUnits="objectBoundingBox" id="filter-4">
            <feOffset dx="0" dy="2" in="SourceAlpha" result="shadowOffsetOuter1"></feOffset>
            <feGaussianBlur stdDeviation="2.5" in="shadowOffsetOuter1" result="shadowBlurOuter1"></feGaussianBlur>
            <feComposite in="shadowBlurOuter1" in2="SourceAlpha" operator="out" result="shadowBlurOuter1"></feComposite>
            <feColorMatrix values="0 0 0 0 0.0235294118   0 0 0 0 0.262745098   0 0 0 0 0.0980392157  0 0 0 0.137596241 0" type="matrix" in="shadowBlurOuter1"></feColorMatrix>
        </filter>
        <path d="M27.4732179,0.48275185 L27.4727028,0.490106067 C27.2666756,0.485378356 27.0601333,0.48275185 26.8525608,0.48275185 C13.6565159,0.48275185 1.83518767,11.3423046 0.448624324,24.7390624 C-0.938454096,38.1352949 8.63460179,48.9958983 21.8301317,48.9958983 C22.0377041,48.9958983 22.2427012,48.9895947 22.4497586,48.9838163 L22.4471833,49.0043031 L29.6061149,49.0043031 C32.4894662,49.1681971 34.5394373,51.6071708 34.2298814,54.5914072 C33.9203254,57.5856243 31.3521958,60.0309017 28.4255788,60.1837643 L21.2898252,60.1837643 L25.3295044,78.8429901 L26.8118704,78.8429901 L26.8123855,78.8340599 C27.0184128,78.8398382 27.2249551,78.8429901 27.4330426,78.8429901 C40.6239369,78.8429901 52.4416596,67.9860638 53.8282229,54.5935084 C55.2142712,41.2020036 45.6443057,30.3456027 32.4534115,30.3456027 C32.2113294,30.3456027 31.9707926,30.3524316 31.7292257,30.3592605 L31.7307709,30.3456027 L24.7011213,30.3456027 L24.7021515,30.3329954 C21.8048934,30.1806581 19.7430757,27.735906 20.0531467,24.7406383 C20.3627026,21.7469465 22.9318624,19.3006186 25.8595095,19.1477559 L32.9978384,19.1477559 L28.956099,0.48275185 L27.4732179,0.48275185 Z" id="path-5"></path>
        <path d="M0.271440894,10.7193462 C0.271440894,16.6245896 4.96474151,21.4107281 10.7551372,21.4107281 C16.5455329,21.4107281 21.2393486,16.6245896 21.2393486,10.7193462 C21.2393486,4.81463056 16.5455329,0.0290196911 10.7551372,0.0290196911 C4.96474151,0.0290196911 0.271440894,4.81463056 0.271440894,10.7193462 Z" id="path-7"></path>
        <path d="M0,10.6814825 C0,16.4450946 4.80724373,21.1183076 10.7399238,21.1183076 C16.6715487,21.1183076 21.4793201,16.4450946 21.4793201,10.6814825 C21.4793201,4.91684017 16.6715487,0.24517242 10.7399238,0.24517242 C4.80724373,0.24517242 0,4.91684017 0,10.6814825 Z" id="path-9"></path>
        <linearGradient x1="30.510375%" y1="-67.3781381%" x2="50%" y2="100%" id="linearGradient-11">
            <stop stop-color="#E7FFE8" stop-opacity="0.278532609" offset="0%"></stop>
            <stop stop-color="#CAFFCD" offset="100%"></stop>
        </linearGradient>
    </defs>
    <g id="红包优化" stroke="none" stroke-width="1" fill="none" fill-rule="evenodd">
        <g id="Pop-Cash" transform="translate(-40.000000, -180.000000)">
            <g id="Gifts-Pop-Cash-Card" transform="translate(65.000000, 198.000000)">
                <g id="Group">
                    <mask id="mask-3" fill="white">
                        <use xlink:href="#path-2"></use>
                    </mask>
                    <g id="Combined-Shape">
                        <use fill="black" fill-opacity="1" filter="url(#filter-4)" xlink:href="#path-2"></use>
                        <path stroke-opacity="0.1" stroke="#FFFFFF" stroke-width="1" d="M229.5,48.4810552 C226.143776,48.2257427 223.5,45.4216149 223.5,42 C223.5,38.5783851 226.143776,35.7742573 229.5,35.5189448 L229.5,4 C229.5,2.06700338 227.932997,0.5 226,0.5 L4,0.5 C2.06700338,0.5 0.5,2.06700338 0.5,4 L0.5,35.5189448 C3.85622386,35.7742573 6.5,38.5783851 6.5,42 C6.5,45.4216149 3.85622386,48.2257427 0.5,48.4810552 L0.5,117 C0.5,119.485281 2.51471863,121.5 5,121.5 L225,121.5 C227.485281,121.5 229.5,119.485281 229.5,117 L229.5,48.4810552 Z" stroke-linejoin="square" fill="url(#linearGradient-1)" fill-rule="evenodd"></path>
                    </g>
                    <g id="Group-3" mask="url(#mask-3)" opacity="0.149999991">
                        <g transform="translate(27.549156, 74.549156) rotate(40.000000) translate(-27.549156, -74.549156) translate(-45.950844, 1.049156)">
                            <g id="Page-1-Copy-2" stroke="none" stroke-width="1" fill-rule="evenodd" transform="translate(73.621366, 72.713935) rotate(-36.000000) translate(-73.621366, -72.713935) translate(40.621366, 30.713935)">
                                <path d="M37.8075576,32.0318669 C37.5635098,32.0318669 37.3210198,32.0387795 37.0774912,32.045692 L37.079049,32.0318669 L29.9923158,32.0318669 L29.9933543,32.0191053 C27.0725693,31.8649022 24.9940089,29.390208 25.3065978,26.3587874 C25.6186674,23.3278985 28.2086898,20.8516091 31.1601106,20.6968743 L38.3569249,20.6968743 L34.2818456,1.80273838 L32.7869229,1.80273838 L32.7864037,1.81124614 C32.5792227,1.80592879 32.3704839,1.80273838 32.1612259,1.80273838 C18.858543,1.80273838 6.94070161,12.7958255 5.54287881,26.3566604 C4.14453676,39.9174954 13.7953297,50.9105825 27.0980126,50.9105825 C27.3067514,50.9105825 27.5144516,50.9042017 27.7226711,50.8983526 L27.7200749,50.919622 L34.9371399,50.919622 C37.8439052,51.0849915 39.9105229,53.5538366 39.5984532,56.5751543 C39.2869028,59.6055114 36.6973997,62.0807374 33.7470174,62.2354722 L26.5533186,62.2354722 L30.6263209,81.1232273 L32.1207243,81.1232273 L32.1212436,81.1141878 C32.3284246,81.1200369 32.5371634,81.1232273 32.7464214,81.1232273 C46.044431,81.1232273 57.9581184,70.1338623 59.3559412,56.5767495 C60.7527255,43.0212319 51.1055673,32.0318669 37.8075576,32.0318669" id="Fill-1" fill="#CAFFCD"></path>
                                <g id="Group-5" transform="translate(5.408215, 1.802738)">
                                    <mask id="mask-6" fill="white">
                                        <use xlink:href="#path-5"></use>
                                    </mask>
                                    <g id="Clip-4"></g>
                                    <polygon id="Fill-3" fill="#CAFFCD" mask="url(#mask-6)" points="-2.26063393 81.4694963 56.5364511 81.4694963 56.5364511 -2.1437544 -2.26063393 -2.1437544"></polygon>
                                </g>
                                <path d="M64.8985818,10.8164303 C64.8985818,4.84182326 60.0564431,0 54.0824172,0 C48.1083914,0 43.2657212,4.84182326 43.2657212,10.8164303 C43.2657212,16.7905035 48.1083914,21.6328606 54.0824172,21.6328606 C60.0564431,21.6328606 64.8985818,16.7905035 64.8985818,10.8164303" id="Fill-6" fill="#FFFFFF"></path>
                                <g id="Group-10" transform="translate(43.265721, 0.000000)">
                                    <mask id="mask-8" fill="white">
                                        <use xlink:href="#path-7"></use>
                                    </mask>
                                    <g id="Clip-9"></g>
                                    <polygon id="Fill-8" fill="#CAFFCD" mask="url(#mask-8)" points="-2.30441472 24.0488818 23.8141741 24.0488818 23.8141741 -2.60913404 -2.30441472 -2.60913404"></polygon>
                                </g>
                                <path d="M10.8164303,61.293105 C4.84172627,61.293105 0,66.1349283 0,72.1095354 C0,78.0836086 4.84172627,82.9259657 10.8164303,82.9259657 C16.7906029,82.9259657 21.6328606,78.0836086 21.6328606,72.1095354 C21.6328606,66.1349283 16.7906029,61.293105 10.8164303,61.293105" id="Fill-11" fill="#FFFFFF"></path>
                                <g id="Group-15" transform="translate(0.000000, 61.293105)">
                                    <mask id="mask-10" fill="white">
                                        <use xlink:href="#path-9"></use>
                                    </mask>
                                    <g id="Clip-14"></g>
                                    <polygon id="Fill-13" fill="#CAFFCD" mask="url(#mask-10)" points="-2.63815373 23.693133 24.1174738 23.693133 24.1174738 -2.33016813 -2.63815373 -2.33016813"></polygon>
                                </g>
                            </g>
                            <circle id="Oval-3" stroke="url(#linearGradient-11)" stroke-width="21" cx="73.0638514" cy="73.0638514" r="73.0638514"></circle>
                        </g>
                    </g>
                </g>
                <path d="M8,43 L222,43" id="Line-3" stroke="#000000" opacity="0.300000012" stroke-linecap="round" stroke-linejoin="round" stroke-dasharray="1.200000047683716,5"></path>
            </g>
        </g>
    </g>
</svg>