<?xml version="1.0" encoding="UTF-8"?>
<svg width="280px" height="130px" viewBox="0 0 280 130" version="1.1" xmlns="http://www.w3.org/2000/svg" xmlns:xlink="http://www.w3.org/1999/xlink">
    <!-- Generator: Sketch 51.2 (57519) - http://www.bohemiancoding.com/sketch -->
    <title>Pop/Package-Card@1x</title>
    <desc>Created with Sketch.</desc>
    <defs>
        <filter x="-15.5%" y="-12.4%" width="136.6%" height="126.9%" filterUnits="objectBoundingBox" id="filter-1">
            <feOffset dx="0" dy="2" in="SourceAlpha" result="shadowOffsetOuter1"></feOffset>
            <feGaussianBlur stdDeviation="7.5" in="shadowOffsetOuter1" result="shadowBlurOuter1"></feGaussianBlur>
            <feColorMatrix values="0 0 0 0 0.0352941176   0 0 0 0 0.419607843   0 0 0 0 0.152941176  0 0 0 0.202615489 0" type="matrix" in="shadowBlurOuter1" result="shadowMatrixOuter1"></feColorMatrix>
            <feMerge>
                <feMergeNode in="shadowMatrixOuter1"></feMergeNode>
                <feMergeNode in="SourceGraphic"></feMergeNode>
            </feMerge>
        </filter>
        <linearGradient x1="9.67174115%" y1="-64.2708041%" x2="104.818095%" y2="72.1522323%" id="linearGradient-2">
            <stop stop-color="#1EBCC8" offset="0%"></stop>
            <stop stop-color="#454BAB" offset="100%"></stop>
        </linearGradient>
        <path d="M209.011578,82.1364859 L209.011578,99.2213445 C209.011578,102.535053 206.325287,105.221344 203.011578,105.221344 L39.9389198,105.221344 C36.6252113,105.221344 33.9389198,102.535053 33.9389198,99.2213445 L33.9389198,82.1364859 C36.0862029,82.1364859 37.8269198,80.395769 37.8269198,78.2484859 C37.8269198,76.1012028 36.0862029,74.3604859 33.9389198,74.3604859 L33.9389198,36.2030815 C33.9389198,32.889373 36.6252113,30.2030815 39.9389198,30.2030815 L203.011578,30.2030815 C206.325287,30.2030815 209.011578,32.889373 209.011578,36.2030815 L209.011578,74.3604859 C206.864295,74.3604859 205.123578,76.1012028 205.123578,78.2484859 C205.123578,80.395769 206.864295,82.1364859 209.011578,82.1364859 Z" id="path-3"></path>
        <filter x="-3.4%" y="-8.0%" width="106.9%" height="116.0%" filterUnits="objectBoundingBox" id="filter-4">
            <feOffset dx="0" dy="0" in="SourceAlpha" result="shadowOffsetOuter1"></feOffset>
            <feGaussianBlur stdDeviation="2" in="shadowOffsetOuter1" result="shadowBlurOuter1"></feGaussianBlur>
            <feComposite in="shadowBlurOuter1" in2="SourceAlpha" operator="out" result="shadowBlurOuter1"></feComposite>
            <feColorMatrix values="0 0 0 0 0.0352941176   0 0 0 0 0.419607843   0 0 0 0 0.152941176  0 0 0 0.4 0" type="matrix" in="shadowBlurOuter1"></feColorMatrix>
        </filter>
        <linearGradient x1="-5.37005307%" y1="-91.201524%" x2="80.031121%" y2="147.209064%" id="linearGradient-5">
            <stop stop-color="#24E768" offset="0%"></stop>
            <stop stop-color="#16AA44" offset="100%"></stop>
        </linearGradient>
        <path d="M216.8,48.7714461 L216.8,76.7093216 C216.8,79.3075341 214.693733,81.4138016 212.09552,81.4138016 L4.70448,81.4138016 C2.10626744,81.4138016 6.07143218e-14,79.3075341 6.03961325e-14,76.7093216 L5.9362293e-14,48.7714461 C2.59821256,48.7714461 4.70448,46.6651787 4.70448,44.0669661 C4.70448,41.4687535 2.59821256,39.3624861 1.19282362e-12,39.3624861 L5.77315973e-14,4.70448 C5.7413408e-14,2.10626744 2.10626744,-2.43917118e-14 4.70448,-2.48689958e-14 L212.09552,-2.7533531e-14 C214.693733,-4.41645492e-14 216.8,2.10626744 216.8,4.70448 L216.8,39.3624861 C214.201787,39.3624861 212.09552,41.4687535 212.09552,44.0669661 C212.09552,46.6651787 214.201787,48.7714461 216.8,48.7714461 Z" id="path-6"></path>
        <filter x="-5.8%" y="-14.1%" width="111.5%" height="130.7%" filterUnits="objectBoundingBox" id="filter-8">
            <feOffset dx="0" dy="1" in="SourceAlpha" result="shadowOffsetOuter1"></feOffset>
            <feGaussianBlur stdDeviation="4" in="shadowOffsetOuter1" result="shadowBlurOuter1"></feGaussianBlur>
            <feComposite in="shadowBlurOuter1" in2="SourceAlpha" operator="out" result="shadowBlurOuter1"></feComposite>
            <feColorMatrix values="0 0 0 0 0.0352941176   0 0 0 0 0.419607843   0 0 0 0 0.152941176  0 0 0 0.5 0" type="matrix" in="shadowBlurOuter1"></feColorMatrix>
        </filter>
        <path d="M27.4732179,0.48275185 L27.4727028,0.490106067 C27.2666756,0.485378356 27.0601333,0.48275185 26.8525608,0.48275185 C13.6565159,0.48275185 1.83518767,11.3423046 0.448624324,24.7390624 C-0.938454096,38.1352949 8.63460179,48.9958983 21.8301317,48.9958983 C22.0377041,48.9958983 22.2427012,48.9895947 22.4497586,48.9838163 L22.4471833,49.0043031 L29.6061149,49.0043031 C32.4894662,49.1681971 34.5394373,51.6071708 34.2298814,54.5914072 C33.9203254,57.5856243 31.3521958,60.0309017 28.4255788,60.1837643 L21.2898252,60.1837643 L25.3295044,78.8429901 L26.8118704,78.8429901 L26.8123855,78.8340599 C27.0184128,78.8398382 27.2249551,78.8429901 27.4330426,78.8429901 C40.6239369,78.8429901 52.4416596,67.9860638 53.8282229,54.5935084 C55.2142712,41.2020036 45.6443057,30.3456027 32.4534115,30.3456027 C32.2113294,30.3456027 31.9707926,30.3524316 31.7292257,30.3592605 L31.7307709,30.3456027 L24.7011213,30.3456027 L24.7021515,30.3329954 C21.8048934,30.1806581 19.7430757,27.735906 20.0531467,24.7406383 C20.3627026,21.7469465 22.9318624,19.3006186 25.8595095,19.1477559 L32.9978384,19.1477559 L28.956099,0.48275185 L27.4732179,0.48275185 Z" id="path-9"></path>
        <path d="M0.271440894,10.7193462 C0.271440894,16.6245896 4.96474151,21.4107281 10.7551372,21.4107281 C16.5455329,21.4107281 21.2393486,16.6245896 21.2393486,10.7193462 C21.2393486,4.81463056 16.5455329,0.0290196911 10.7551372,0.0290196911 C4.96474151,0.0290196911 0.271440894,4.81463056 0.271440894,10.7193462 Z" id="path-11"></path>
        <path d="M0,10.6814825 C0,16.4450946 4.80724373,21.1183076 10.7399238,21.1183076 C16.6715487,21.1183076 21.4793201,16.4450946 21.4793201,10.6814825 C21.4793201,4.91684017 16.6715487,0.24517242 10.7399238,0.24517242 C4.80724373,0.24517242 0,4.91684017 0,10.6814825 Z" id="path-13"></path>
        <linearGradient x1="30.510375%" y1="-67.3781381%" x2="50%" y2="100%" id="linearGradient-15">
            <stop stop-color="#E7FFE8" stop-opacity="0.278532609" offset="0%"></stop>
            <stop stop-color="#CAFFCD" offset="100%"></stop>
        </linearGradient>
    </defs>
    <g id="红包优化" stroke="none" stroke-width="1" fill="none" fill-rule="evenodd">
        <g id="Pop-Package" transform="translate(-40.000000, -180.000000)">
            <g id="Gifts-Pop-Package-Card" filter="url(#filter-1)" transform="translate(179.338105, 261.391209) rotate(-285.000000) translate(-179.338105, -261.391209) translate(97.338105, 138.891209)">
                <g id="Group-2" transform="translate(81.660719, 122.322831) rotate(-81.000000) translate(-81.660719, -122.322831) translate(-31.339281, 57.822831)">
                    <g id="Group" transform="translate(0.430101, -0.000000)">
                        <path d="M182.547482,69.6608561 C180.359501,69.41268 178.659482,67.5553856 178.659482,65.3010305 C178.659482,63.0466755 180.359501,61.1893811 182.547482,60.941205 L182.547482,25.1482126 C182.547482,22.1106465 180.085048,19.6482126 177.047482,19.6482126 L31.8002864,19.6482126 C28.7627202,19.6482126 26.3002864,22.1106465 26.3002864,25.1482126 L26.3002864,60.941205 C28.4882672,61.1893811 30.1882864,63.0466755 30.1882864,65.3010305 C30.1882864,67.5553856 28.4882672,69.41268 26.3002864,69.6608561 L26.3002864,85.314437 C26.3002864,88.3520031 28.7627202,90.814437 31.8002864,90.814437 L177.047482,90.814437 C180.085048,90.814437 182.547482,88.3520031 182.547482,85.314437 L182.547482,69.6608561 Z" id="Mask" stroke-opacity="0.1" stroke="#EAECEF" fill="#F2AF00" transform="translate(104.423884, 55.231325) rotate(-15.000000) translate(-104.423884, -55.231325) "></path>
                        <g id="Mask" transform="translate(121.475249, 67.712213) rotate(-6.000000) translate(-121.475249, -67.712213) ">
                            <use fill="black" fill-opacity="1" filter="url(#filter-4)" xlink:href="#path-3"></use>
                            <path stroke-opacity="0.1" stroke="#F2F5FA" stroke-width="1" d="M208.511578,82.6083115 C206.323598,82.3601353 204.623578,80.502841 204.623578,78.2484859 C204.623578,75.9941308 206.323598,74.1368365 208.511578,73.8886603 L208.511578,36.2030815 C208.511578,33.1655154 206.049145,30.7030815 203.011578,30.7030815 L39.9389198,30.7030815 C36.9013536,30.7030815 34.4389198,33.1655154 34.4389198,36.2030815 L34.4389198,73.8886603 C36.6269006,74.1368365 38.3269198,75.9941308 38.3269198,78.2484859 C38.3269198,80.502841 36.6269006,82.3601353 34.4389198,82.6083115 L34.4389198,99.2213445 C34.4389198,102.258911 36.9013536,104.721344 39.9389198,104.721344 L203.011578,104.721344 C206.049145,104.721344 208.511578,102.258911 208.511578,99.2213445 L208.511578,82.6083115 Z" stroke-linejoin="square" fill="url(#linearGradient-2)" fill-rule="evenodd"></path>
                        </g>
                        <g id="Group-4" transform="translate(112.228977, 76.555202) rotate(-354.000000) translate(-112.228977, -76.555202) translate(3.728977, 35.555202)">
                            <mask id="mask-7" fill="white">
                                <use xlink:href="#path-6"></use>
                            </mask>
                            <g id="Mask">
                                <use fill="black" fill-opacity="1" filter="url(#filter-8)" xlink:href="#path-6"></use>
                                <path stroke-opacity="0.1" stroke="#EAECEF" stroke-width="1" d="M216.3,49.2477385 C213.660215,48.9961192 211.59552,46.7726603 211.59552,44.0669661 C211.59552,41.3612719 213.660215,39.1378131 216.3,38.8861937 L216.3,4.70448 C216.3,2.38240982 214.41759,0.5 212.09552,0.5 L4.70448,0.5 C2.38240982,0.5 0.5,2.38240982 0.5,4.70448 L0.5,38.8861937 C3.13978525,39.1378131 5.20448,41.3612719 5.20448,44.0669661 C5.20448,46.7726603 3.13978525,48.9961192 0.5,49.2477385 L0.5,76.7093216 C0.5,79.0313917 2.38240982,80.9138016 4.70448,80.9138016 L212.09552,80.9138016 C214.41759,80.9138016 216.3,79.0313917 216.3,76.7093216 L216.3,49.2477385 Z" stroke-linejoin="square" fill="url(#linearGradient-5)" fill-rule="evenodd"></path>
                            </g>
                            <g id="Group-3" mask="url(#mask-7)">
                                <g transform="translate(20.706674, 38.506723) rotate(40.000000) translate(-20.706674, -38.506723) translate(-52.793326, -34.993277)">
                                    <g id="Page-1-Copy-2" opacity="0.074524458" stroke="none" stroke-width="1" fill-rule="evenodd" transform="translate(73.621366, 72.713935) rotate(-36.000000) translate(-73.621366, -72.713935) translate(40.621366, 30.713935)">
                                        <path d="M37.8075576,32.0318669 C37.5635098,32.0318669 37.3210198,32.0387795 37.0774912,32.045692 L37.079049,32.0318669 L29.9923158,32.0318669 L29.9933543,32.0191053 C27.0725693,31.8649022 24.9940089,29.390208 25.3065978,26.3587874 C25.6186674,23.3278985 28.2086898,20.8516091 31.1601106,20.6968743 L38.3569249,20.6968743 L34.2818456,1.80273838 L32.7869229,1.80273838 L32.7864037,1.81124614 C32.5792227,1.80592879 32.3704839,1.80273838 32.1612259,1.80273838 C18.858543,1.80273838 6.94070161,12.7958255 5.54287881,26.3566604 C4.14453676,39.9174954 13.7953297,50.9105825 27.0980126,50.9105825 C27.3067514,50.9105825 27.5144516,50.9042017 27.7226711,50.8983526 L27.7200749,50.919622 L34.9371399,50.919622 C37.8439052,51.0849915 39.9105229,53.5538366 39.5984532,56.5751543 C39.2869028,59.6055114 36.6973997,62.0807374 33.7470174,62.2354722 L26.5533186,62.2354722 L30.6263209,81.1232273 L32.1207243,81.1232273 L32.1212436,81.1141878 C32.3284246,81.1200369 32.5371634,81.1232273 32.7464214,81.1232273 C46.044431,81.1232273 57.9581184,70.1338623 59.3559412,56.5767495 C60.7527255,43.0212319 51.1055673,32.0318669 37.8075576,32.0318669" id="Fill-1" fill="#CAFFCD"></path>
                                        <g id="Group-5" transform="translate(5.408215, 1.802738)">
                                            <mask id="mask-10" fill="white">
                                                <use xlink:href="#path-9"></use>
                                            </mask>
                                            <g id="Clip-4"></g>
                                            <polygon id="Fill-3" fill="#CAFFCD" mask="url(#mask-10)" points="-2.26063393 81.4694963 56.5364511 81.4694963 56.5364511 -2.1437544 -2.26063393 -2.1437544"></polygon>
                                        </g>
                                        <path d="M64.8985818,10.8164303 C64.8985818,4.84182326 60.0564431,0 54.0824172,0 C48.1083914,0 43.2657212,4.84182326 43.2657212,10.8164303 C43.2657212,16.7905035 48.1083914,21.6328606 54.0824172,21.6328606 C60.0564431,21.6328606 64.8985818,16.7905035 64.8985818,10.8164303" id="Fill-6" fill="#FFFFFF"></path>
                                        <g id="Group-10" transform="translate(43.265721, 0.000000)">
                                            <mask id="mask-12" fill="white">
                                                <use xlink:href="#path-11"></use>
                                            </mask>
                                            <g id="Clip-9"></g>
                                            <polygon id="Fill-8" fill="#CAFFCD" mask="url(#mask-12)" points="-2.30441472 24.0488818 23.8141741 24.0488818 23.8141741 -2.60913404 -2.30441472 -2.60913404"></polygon>
                                        </g>
                                        <path d="M10.8164303,61.293105 C4.84172627,61.293105 0,66.1349283 0,72.1095354 C0,78.0836086 4.84172627,82.9259657 10.8164303,82.9259657 C16.7906029,82.9259657 21.6328606,78.0836086 21.6328606,72.1095354 C21.6328606,66.1349283 16.7906029,61.293105 10.8164303,61.293105" id="Fill-11" fill="#FFFFFF"></path>
                                        <g id="Group-15" transform="translate(0.000000, 61.293105)">
                                            <mask id="mask-14" fill="white">
                                                <use xlink:href="#path-13"></use>
                                            </mask>
                                            <g id="Clip-14"></g>
                                            <polygon id="Fill-13" fill="#CAFFCD" mask="url(#mask-14)" points="-2.63815373 23.693133 24.1174738 23.693133 24.1174738 -2.33016813 -2.63815373 -2.33016813"></polygon>
                                        </g>
                                    </g>
                                    <circle id="Oval-3" stroke="url(#linearGradient-15)" stroke-width="21" opacity="0.100000001" cx="73.0638514" cy="73.0638514" r="73.0638514"></circle>
                                </g>
                            </g>
                            <path d="M8,45 L208,45" id="Line-3" stroke="#000000" stroke-width="1.2" opacity="0.200000003" stroke-linecap="round" stroke-linejoin="round" stroke-dasharray="0.9408960342407227,4.704480171203613" mask="url(#mask-7)"></path>
                        </g>
                    </g>
                </g>
            </g>
        </g>
    </g>
</svg>