<?xml version="1.0" encoding="UTF-8"?>
<svg width="44px" height="44px" viewBox="0 0 44 44" version="1.1" xmlns="http://www.w3.org/2000/svg" xmlns:xlink="http://www.w3.org/1999/xlink">
    <!-- Generator: Sketch 50.2 (55047) - http://www.bohemiancoding.com/sketch -->
    <title>ic-2@1x</title>
    <desc>Created with Sketch.</desc>
    <defs></defs>
    <g id="ic-2" stroke="none" stroke-width="1" fill="none" fill-rule="evenodd">
        <path d="M8.18155846,14.2034474 L11.0428441,13.2975707 C11.7983791,13.0583699 12.6049576,13.4763548 12.8443877,14.231166 C13.0838178,14.9859771 12.6654322,15.791783 11.9098972,16.0309837 L5.11724866,18.1815213 C4.36100195,18.4209474 3.55377684,18.0019456 3.31512874,17.2461052 L1.06685775,10.1254361 C0.828434241,9.370307 1.24789392,8.56505863 2.00374717,8.32686354 C2.75960042,8.08866845 3.56562098,8.50772627 3.80404449,9.26285539 L5.00408954,13.0636088 C8.33752824,6.36334226 15.2437399,2 22.9569033,2 C34.0227002,2 43,10.9686993 43,22.0238949 C43,26.062925 41.7925164,29.9365744 39.5547473,33.236783 C39.4627062,33.3725231 39.3542094,33.4904717 39.2337174,33.5897719 C39.2322996,33.591697 39.2308792,33.5936244 39.229456,33.5955539 C39.1654669,33.6823131 38.9809758,33.9246524 38.9818136,33.9235364 C38.4270178,34.6625555 37.3775992,34.8123288 36.6378715,34.2580645 C35.8981438,33.7038003 35.7482268,32.655387 36.3030226,31.916368 C36.3158192,31.8993221 36.4878525,31.673347 36.5337356,31.6111366 C36.602343,31.5181158 36.6517014,31.4459755 36.6851209,31.3903297 C36.7813163,31.2301576 36.9001092,31.091871 37.0349831,30.9770973 C38.7379162,28.312774 39.6515113,25.2338946 39.6515113,22.0238949 C39.6515113,12.8162469 32.1733809,5.34528076 22.9569033,5.34528076 C16.6622279,5.34528076 11.0181488,8.82743052 8.18155846,14.2034474 Z M22.9090678,38.6547192 C23.8337274,38.6547192 24.5833121,39.4035858 24.5833121,40.3273596 C24.5833121,41.2511334 23.8337274,42 22.9090678,42 C15.6197958,42 9.00966121,38.0866359 5.47680046,31.8833142 C5.01953385,31.0804034 5.30035796,30.0591829 6.10403866,29.6023544 C6.90771936,29.1455259 7.92991912,29.4260809 8.38718573,30.2289917 C11.329821,35.3959413 16.8342822,38.6547192 22.9090678,38.6547192 Z M33.1296179,35.1784067 C33.8625253,34.6151719 34.913694,34.7521495 35.4774689,35.4843548 C36.0412439,36.21656 35.9041349,37.2667217 35.1712275,37.8299565 C33.8000782,38.8836763 32.2855396,39.7652143 30.6840401,40.4361674 C29.8313242,40.7934154 28.850177,40.3924215 28.4925864,39.5405225 C28.1349959,38.6886235 28.5363743,37.7084163 29.3890902,37.3511683 C30.7228196,36.7923982 31.9865717,36.0568307 33.1296179,35.1784067 Z M28.9363474,25.0346476 C28.9363474,27.1373955 26.4967342,28.8578256 25.1095032,29.7180406 L25.1095032,31.7252091 L22.23937,31.7252091 L22.23937,30.3870968 L22.1436989,30.3870968 C20.3259479,30.4348865 18.5081969,30.0525687 16.8817881,29.2401434 L17.7906636,25.5603345 C19.1300591,26.3249701 20.6607968,26.7550777 22.1915345,26.8028674 C23.7222722,26.8028674 24.3441344,26.2293907 24.3441344,25.4169654 C24.3441344,24.60454 23.8179433,24.1744325 21.9045212,23.5531661 C18.5081969,22.4062127 17.216637,20.5902031 17.216637,18.6308244 C17.216637,15.9545998 18.6517036,13.8996416 22.23937,13.3739546 L22.23937,11.7013142 L25.1095032,11.7013142 L25.1095032,13.4217443 C26.1618854,13.4695341 27.2142675,13.7562724 28.2188141,14.1863799 L27.6447875,17.7228196 C26.5445698,17.1493429 25.3008454,16.8148148 24.057121,16.7670251 C22.8133967,16.7670251 22.0480278,17.3405018 22.0480278,18.1051374 C22.0480278,18.869773 22.6220545,19.2520908 24.6311477,19.9689367 C27.7882942,21.0203106 28.9363474,22.5973716 28.9363474,25.0346476 Z" id="Combined-Shape" fill="#33EA6A" fill-rule="nonzero"></path>
    </g>
</svg>