<?xml version="1.0" encoding="UTF-8"?>
<svg width="15px" height="15px" viewBox="0 0 15 15" version="1.1" xmlns="http://www.w3.org/2000/svg" xmlns:xlink="http://www.w3.org/1999/xlink">
    <!-- Generator: sketchtool 50.2 (55047) - http://www.bohemiancoding.com/sketch -->
    <title>30CA9806-02DA-4287-BAEE-3D7839A8D48D</title>
    <desc>Created with sketchtool.</desc>
    <defs></defs>
    <g id="Bingo" stroke="none" stroke-width="1" fill="none" fill-rule="evenodd">
        <g id="MostPopular-Copy" transform="translate(-10.000000, -324.000000)" fill="#F2AF00">
            <path d="M18.6844009,335.060096 L18.6844009,336.53408 L21.0258175,336.53408 L21.0258175,337.713267 L15.1298832,337.713267 L15.1298832,336.53408 L17.505214,336.53408 L17.505214,335.060096 L17.4069485,335.060096 C16.1991092,334.793205 14.6084615,333.543063 14.1179725,331.942782 C12.0524484,331.553551 11.0196863,330.529079 11.0196863,328.869365 C11.0196863,327.559158 11.0196863,326.773033 11.0196863,326.510991 L13.9750869,326.510991 C13.9739079,326.09044 13.9716003,325.715759 13.9676535,325.43007 L13.9676535,324.742211 L22.2219615,324.742211 L22.2219615,325.43007 C22.2219615,325.43007 22.220043,325.871609 22.2180457,326.510991 L25.1699286,326.510991 C25.1699286,326.773033 25.1699286,327.559158 25.1699286,328.869365 C25.1699286,330.530962 24.1348214,331.555875 22.0646071,331.944104 C21.5671994,333.54376 19.9903455,334.793305 18.7826665,335.060096 L18.6844009,335.060096 Z M22.2178215,330.551121 C23.3997683,330.248861 23.9907418,329.716351 23.9907418,328.953593 C23.9907418,328.814787 23.9907418,328.393649 23.9907418,327.690178 L22.2150135,327.690178 C22.2129996,328.713884 22.2125625,329.849435 22.2178215,330.551121 Z M13.9759326,327.690178 L12.1988732,327.690178 C12.1988732,328.393649 12.1988732,328.814787 12.1988732,328.953593 C12.1988732,329.715632 12.7887316,330.247855 13.9684483,330.550264 C13.9703339,329.917448 13.9749901,328.781559 13.9759326,327.690178 Z M18.0948075,329.952732 L19.1879738,330.465005 L19.0385802,329.267041 L19.8635877,328.385679 L18.6780911,328.157569 L18.0948075,327.100585 L17.5115238,328.157569 L16.3260272,328.385679 L17.1510347,329.267041 L17.0785253,329.848482 L17.0016411,330.465005 L18.0948075,329.952732 Z" id="Mask" transform="translate(18.094807, 331.227739) rotate(-9.000000) translate(-18.094807, -331.227739) "></path>
        </g>
    </g>
</svg>