<?xml version="1.0" encoding="UTF-8"?>
<svg width="35px" height="34px" viewBox="0 0 35 34" version="1.1" xmlns="http://www.w3.org/2000/svg" xmlns:xlink="http://www.w3.org/1999/xlink">
    <!-- Generator: sketchtool 50.2 (55047) - http://www.bohemiancoding.com/sketch -->
    <title>71D480F8-DB19-4A5F-A06E-6E1AF0F4B711</title>
    <desc>Created with sketchtool.</desc>
    <defs></defs>
    <g id="Bingo" stroke="none" stroke-width="1" fill="none" fill-rule="evenodd">
        <g id="Detail-published-Copy" transform="translate(-31.000000, -432.000000)" fill="#F2AF00">
            <path d="M51.4166667,458.659091 L51.4166667,462.174242 L57.0047102,462.174242 L57.0047102,465.007576 L42.9138011,465.007576 L42.9138011,462.174242 L48.5833333,462.174242 L48.5833333,458.659091 L48.3472222,458.659091 C45.4450434,458.021238 41.6230579,455.033477 40.4445179,451.208907 C35.481506,450.27867 33,447.830247 33,443.863636 C33,440.732323 33,438.853535 33,438.227273 L40.1011943,438.227273 C40.0983615,437.222182 40.0928168,436.326718 40.0833333,435.643939 L40.0833333,434 L59.9166667,434 L59.9166667,435.643939 C59.9166667,435.643939 59.9120571,436.69919 59.907258,438.227273 L67,438.227273 C67,438.853535 67,440.732323 67,443.863636 C67,447.834748 64.5128593,450.284225 59.5385778,451.212067 C58.3434137,455.035142 54.5545717,458.021478 51.6527778,458.659091 L51.4166667,458.659091 Z M59.9067192,447.882925 C62.7466842,447.160543 64.1666667,445.88788 64.1666667,444.064935 C64.1666667,443.733198 64.1666667,442.726705 64.1666667,441.045455 L59.8999723,441.045455 C59.8951333,443.492047 59.8940831,446.20594 59.9067192,447.882925 Z M40.1032262,441.045455 L35.8333333,441.045455 C35.8333333,442.726705 35.8333333,443.733198 35.8333333,444.064935 C35.8333333,445.886159 37.2506366,447.158141 40.0852433,447.880879 C40.0897739,446.368489 40.1009616,443.653784 40.1032262,441.045454 Z M50,446.452814 L52.6266445,447.677114 L52.2676837,444.814056 L54.25,442.707657 L51.4015056,442.16249 L50,439.636364 L48.5984944,442.16249 L45.75,442.707657 L47.7323163,444.814056 L47.5580918,446.203664 L47.3733555,447.677114 L50,446.452814 Z" id="Mask" transform="translate(50.000000, 449.500000) rotate(-9.000000) translate(-50.000000, -449.500000) "></path>
        </g>
    </g>
</svg>