<?xml version="1.0" encoding="UTF-8"?>
<svg width="15px" height="13px" viewBox="0 0 15 13" version="1.1" xmlns="http://www.w3.org/2000/svg" xmlns:xlink="http://www.w3.org/1999/xlink">
    <!-- Generator: sketchtool 50.2 (55047) - http://www.bohemiancoding.com/sketch -->
    <title>3CEC5666-95EC-4D23-AA97-289FBE56741D</title>
    <desc>Created with sketchtool.</desc>
    <defs></defs>
    <g id="Bingo" stroke="none" stroke-width="1" fill="none" fill-rule="evenodd">
        <g id="Participants-My-Copy-3" transform="translate(-84.000000, -333.000000)" fill="#0D9737">
            <path d="M91.6647146,343.317885 L91.6647146,344.791869 L94.0061312,344.791869 L94.0061312,345.971055 L88.1101969,345.971055 L88.1101969,344.791869 L90.4855277,344.791869 L90.4855277,343.317885 L90.3872621,343.317885 C89.1794229,343.050994 87.5887752,341.800852 87.0982862,340.20057 C85.0327621,339.81134 84,338.786868 84,337.127154 C84,335.816946 84,335.030822 84,334.76878 L86.9554006,334.76878 C86.9542216,334.348229 86.951914,333.973548 86.9479671,333.687859 L86.9479671,333 L95.2022752,333 L95.2022752,333.687859 C95.2022752,333.687859 95.2003567,334.129398 95.1983594,334.76878 L98.1502423,334.76878 C98.1502423,335.030822 98.1502423,335.816946 98.1502423,337.127154 C98.1502423,338.788751 97.1151351,339.813664 95.0449207,340.201893 C94.5475131,341.801548 92.9706592,343.051094 91.7629801,343.317885 L91.6647146,343.317885 Z M95.1981352,338.80891 C96.380082,338.50665 96.9710554,337.97414 96.9710554,337.211382 C96.9710554,337.072576 96.9710554,336.651438 96.9710554,335.947967 L95.1953272,335.947967 C95.1933133,336.971673 95.1928762,338.107223 95.1981352,338.80891 Z M86.9562462,335.947967 L85.1791869,335.947967 C85.1791869,336.651438 85.1791869,337.072576 85.1791869,337.211382 C85.1791869,337.97342 85.7690453,338.505644 86.948762,338.808053 C86.9506476,338.175237 86.9553037,337.039348 86.9562462,335.947967 Z M91.0751211,338.210521 L92.1682875,338.722794 L92.0188939,337.52483 L92.8439014,336.643468 L91.6584048,336.415358 L91.0751211,335.358374 L90.4918375,336.415358 L89.3063409,336.643468 L90.1313484,337.52483 L90.058839,338.106271 L89.9819548,338.722794 L91.0751211,338.210521 Z" id="Mask"></path>
        </g>
    </g>
</svg>