<?xml version="1.0" encoding="UTF-8"?>
<svg width="15px" height="13px" viewBox="0 0 15 13" version="1.1" xmlns="http://www.w3.org/2000/svg" xmlns:xlink="http://www.w3.org/1999/xlink">
    <!-- Generator: sketchtool 50.2 (55047) - http://www.bohemiancoding.com/sketch -->
    <title>45B0B8CA-FD9F-40CB-8BF9-E0330C0BFAA3</title>
    <desc>Created with sketchtool.</desc>
    <defs></defs>
    <g id="Bingo" stroke="none" stroke-width="1" fill="none" fill-rule="evenodd">
        <g id="Participants-My-Copy-3" transform="translate(-134.000000, -473.000000)" fill="#FFFFFF">
            <path d="M141.664715,483.317885 L141.664715,484.791869 L144.006131,484.791869 L144.006131,485.971055 L138.110197,485.971055 L138.110197,484.791869 L140.485528,484.791869 L140.485528,483.317885 L140.387262,483.317885 C139.179423,483.050994 137.588775,481.800852 137.098286,480.20057 C135.032762,479.81134 134,478.786868 134,477.127154 C134,475.816946 134,475.030822 134,474.76878 L136.955401,474.76878 C136.954222,474.348229 136.951914,473.973548 136.947967,473.687859 L136.947967,473 L145.202275,473 L145.202275,473.687859 C145.202275,473.687859 145.200357,474.129398 145.198359,474.76878 L148.150242,474.76878 C148.150242,475.030822 148.150242,475.816946 148.150242,477.127154 C148.150242,478.788751 147.115135,479.813664 145.044921,480.201893 C144.547513,481.801548 142.970659,483.051094 141.76298,483.317885 L141.664715,483.317885 Z M145.198135,478.80891 C146.380082,478.50665 146.971055,477.97414 146.971055,477.211382 C146.971055,477.072576 146.971055,476.651438 146.971055,475.947967 L145.195327,475.947967 C145.193313,476.971673 145.192876,478.107223 145.198135,478.80891 Z M136.956246,475.947967 L135.179187,475.947967 C135.179187,476.651438 135.179187,477.072576 135.179187,477.211382 C135.179187,477.97342 135.769045,478.505644 136.948762,478.808053 C136.950648,478.175237 136.955304,477.039348 136.956246,475.947967 Z M141.075121,478.210521 L142.168287,478.722794 L142.018894,477.52483 L142.843901,476.643468 L141.658405,476.415358 L141.075121,475.358374 L140.491838,476.415358 L139.306341,476.643468 L140.131348,477.52483 L140.058839,478.106271 L139.981955,478.722794 L141.075121,478.210521 Z" id="Mask-Copy-2"></path>
        </g>
    </g>
</svg>