<?xml version="1.0" encoding="UTF-8"?>
<svg width="42px" height="42px" viewBox="0 0 42 42" version="1.1" xmlns="http://www.w3.org/2000/svg" xmlns:xlink="http://www.w3.org/1999/xlink">
    <!-- Generator: Sketch 51.2 (57519) - http://www.bohemiancoding.com/sketch -->
    <title>Group 2@1x</title>
    <desc>Created with Sketch.</desc>
    <defs>
        <filter x="0.0%" y="0.0%" width="100.0%" height="100.0%" filterUnits="objectBoundingBox" id="filter-1">
            <feGaussianBlur stdDeviation="0" in="SourceGraphic"></feGaussianBlur>
        </filter>
    </defs>
    <g id="Symbols" stroke="none" stroke-width="1" fill="none" fill-rule="evenodd">
        <g id="footer-尼日-折行" transform="translate(-457.000000, -213.000000)">
            <g id="Group-2" transform="translate(457.000000, 213.000000)">
                <path d="M21,41.5 C9.67816263,41.5 0.5,32.3218374 0.5,21 C0.5,9.67816263 9.67816263,0.5 21,0.5 C32.3218374,0.5 41.5,9.67816263 41.5,21 C41.5,32.3218374 32.3218374,41.5 21,41.5 Z" id="Oval-3" fill="#CA203A" fill-rule="nonzero"></path>
                <path d="M21,36.5 C29.5604136,36.5 36.5,29.5604136 36.5,21 C36.5,12.4395864 29.5604136,5.5 21,5.5 C12.4395864,5.5 5.5,12.4395864 5.5,21 C5.5,29.5604136 12.4395864,36.5 21,36.5 Z" id="Path" fill="#FFFFFF" fill-rule="nonzero"></path>
                <path d="M15.4296875,14.3515625 L15.4296875,27 L12.2734375,27 L12.2734375,20.21875 C12.2734375,19.2395784 12.2500002,18.6510427 12.203125,18.453125 C12.1562498,18.2552073 12.0273448,18.1054693 11.8164062,18.0039062 C11.6054677,17.9023432 11.1354203,17.8515625 10.40625,17.8515625 L10.09375,17.8515625 L10.09375,16.375 C11.6197993,16.0468734 12.7786419,15.3724009 13.5703125,14.3515625 L15.4296875,14.3515625 Z M22.6796875,19.828125 C23.1432315,20.0156259 23.4999987,20.2955711 23.75,20.6679688 C24.0000013,21.0403664 24.125,21.9270763 24.125,23.328125 C24.125,24.3489634 24.0260427,25.1015601 23.828125,25.5859375 C23.6302073,26.0703149 23.2447945,26.4674464 22.671875,26.7773438 C22.0989555,27.0872411 21.330734,27.2421875 20.3671875,27.2421875 C19.4296828,27.2421875 18.6875027,27.0937515 18.140625,26.796875 C17.5937473,26.4999985 17.2018241,26.1067733 16.9648438,25.6171875 C16.7278634,25.1276017 16.609375,24.3125057 16.609375,23.171875 C16.609375,22.4062462 16.6679682,21.7421903 16.7851562,21.1796875 C16.9023443,20.6171847 17.2708302,20.1666684 17.890625,19.828125 C17.499998,19.6406241 17.2070322,19.34245 17.0117188,18.9335938 C16.8164053,18.5247375 16.71875,18.0052115 16.71875,17.375 C16.71875,16.2864529 17.0208303,15.4700548 17.625,14.9257812 C18.2291697,14.3815077 19.1328065,14.109375 20.3359375,14.109375 C21.7265695,14.109375 22.6874973,14.3984346 23.21875,14.9765625 C23.7500027,15.5546904 24.015625,16.380203 24.015625,17.453125 C24.015625,18.1354201 23.9283863,18.6276027 23.7539062,18.9296875 C23.5794262,19.2317723 23.2213569,19.5312485 22.6796875,19.828125 Z M20.90625,17.109375 C20.90625,16.6822895 20.86849,16.3997403 20.7929688,16.2617188 C20.7174475,16.1236972 20.5729177,16.0546875 20.359375,16.0546875 C20.1510406,16.0546875 20.010417,16.1289055 19.9375,16.2773438 C19.864583,16.425782 19.828125,16.703123 19.828125,17.109375 L19.828125,18.0703125 C19.828125,18.4505227 19.8697912,18.7135409 19.953125,18.859375 C20.0364588,19.0052091 20.1770823,19.078125 20.375,19.078125 C20.5833344,19.078125 20.723958,19.0065111 20.796875,18.8632812 C20.869792,18.7200514 20.90625,18.4244814 20.90625,17.9765625 L20.90625,17.109375 Z M20.96875,22.3671875 C20.96875,21.8828101 20.9192713,21.5611987 20.8203125,21.4023438 C20.7213537,21.2434888 20.5651052,21.1640625 20.3515625,21.1640625 C20.1432281,21.1640625 19.99349,21.2408846 19.9023438,21.3945312 C19.8111975,21.5481779 19.765625,21.8723934 19.765625,22.3671875 L19.765625,24.0078125 C19.765625,24.5546902 19.8164057,24.9062492 19.9179688,25.0625 C20.0195318,25.2187508 20.1796864,25.296875 20.3984375,25.296875 C20.622397,25.296875 20.7734371,25.2174487 20.8515625,25.0585938 C20.9296879,24.8997388 20.96875,24.5416695 20.96875,23.984375 L20.96875,22.3671875 Z M25.1484375,19.734375 L27.953125,19.734375 L27.953125,16.921875 L29.859375,16.921875 L29.859375,19.734375 L32.6796875,19.734375 L32.6796875,21.640625 L29.859375,21.640625 L29.859375,24.4375 L27.953125,24.4375 L27.953125,21.640625 L25.1484375,21.640625 L25.1484375,19.734375 Z" id="18+" fill="#1B1E25" filter="url(#filter-1)"></path>
            </g>
        </g>
    </g>
</svg>
