<?xml version="1.0" encoding="UTF-8" standalone="no"?>
<svg width="33px" height="38px" viewBox="0 0 33 38" version="1.1" xmlns="http://www.w3.org/2000/svg" xmlns:xlink="http://www.w3.org/1999/xlink">
    <!-- Generator: Sketch Beta 47 (45359) - http://www.bohemiancoding.com/sketch -->
    <title>Group 4@2x</title>
    <desc>Created with Sketch Beta.</desc>
    <defs></defs>
    <g id="Symbols" stroke="none" stroke-width="1" fill="none" fill-rule="evenodd">
        <g id="footer" transform="translate(-870.000000, -209.000000)">
            <g id="Group-4" transform="translate(872.000000, 212.000000)">
                <g id="认证" fill-rule="nonzero">
                    <polygon id="Shape" stroke="#6A86C1" stroke-width="4" fill="#FFFFFF" points="0 0 0 33 29 33 29 8.06215812 20.5016791 0.182056222"></polygon>
                    <path d="M14,10.0000001 C14,10.2652771 13.9328834,10.519684 13.8134214,10.7072304 C13.6939594,10.8947768 13.5319422,11.0000927 13.3630269,10.9999999 L5.63675044,10.9999999 C5.28508288,10.9999999 5,10.5522848 5,10.0000001 C5,9.44771543 5.28508288,9.00000024 5.63675044,9.00000024 L13.3628043,9.00000024 C13.5317581,8.99981469 13.6938325,9.10508959 13.8133427,9.29264606 C13.9328529,9.48020252 14,9.73466243 14,10.0000001 Z M14,15.0000001 C14,15.2652771 13.9328834,15.519684 13.8134214,15.7072304 C13.6939594,15.8947768 13.5319422,16.0000927 13.3630269,15.9999999 L5.63675044,15.9999999 C5.28508288,15.9999999 5,15.5522848 5,15.0000001 C5,14.4477154 5.28508288,14.0000002 5.63675044,14.0000002 L13.3628043,14.0000002 C13.5317581,13.9998147 13.6938325,14.1050896 13.8133427,14.2926461 C13.9328529,14.4802025 14,14.7346624 14,15.0000001 Z" id="Shape" stroke="#393939" stroke-width="1.5" fill="#393939"></path>
                </g>
                <path d="M12.1771156,18.3671037 L14.8851013,20.9835519 C15.9644815,20.0376639 17.0781883,19.1261025 17.9363528,18.447199 C18.4359953,18.0657926 18.9089392,17.6843862 19.3666269,17.3411204 C19.8243147,16.9978546 20.320143,16.6393326 20.850298,16.2617402 C21.7580453,15.6171633 22.9365912,14.7818832 24.1570918,14 L25,15.1442193 C24.0695764,15.8109495 23.1968924,16.5547723 22.39118,17.3678188 C21.8648391,17.8712753 21.3156138,18.4090584 20.7625745,18.9964243 C20.1523242,19.6448153 19.5153755,20.3618594 18.8326579,21.1513707 C17.6884386,22.4901073 16.1323004,24.3933254 14.6371871,26.5330155 L9,20.930155 L12.1771156,18.3671037 Z" id="Path" fill="#393939"></path>
            </g>
        </g>
    </g>
</svg>