<svg xmlns="http://www.w3.org/2000/svg" width="32" height="32" viewBox="0 0 32 32">
    <g fill="none" fill-rule="evenodd">
        <path fill="#FFF" fill-rule="nonzero" d="M26.562 21.79a9.957 9.957 0 0 0-4.554-8.357l.285-1.502A11.39 11.39 0 0 1 28 21.791a.716.716 0 0 1-.719.713.716.716 0 0 1-.719-.714zm-20.125 0c0-5.452 4.407-9.896 9.9-9.984l.8-1.41a11.552 11.552 0 0 0-8.54 3.105A11.37 11.37 0 0 0 5 21.79c0 .393.322.713.719.713.397 0 .718-.32.718-.714z"/>
        <path fill="#33EA6A" d="M21 8l-1.944 12.985c-.234 1.56-1.577 2.394-3.042 1.847l-.468-.176c-1.446-.542-1.97-2.075-1.175-3.425L21 8z"/>
    </g>
</svg>
