<?xml version="1.0" encoding="UTF-8"?>
<svg width="44px" height="44px" viewBox="0 0 44 44" version="1.1" xmlns="http://www.w3.org/2000/svg" xmlns:xlink="http://www.w3.org/1999/xlink">
    <!-- Generator: Sketch 50.2 (55047) - http://www.bohemiancoding.com/sketch -->
    <title>ic-1@1x</title>
    <desc>Created with Sketch.</desc>
    <defs></defs>
    <g id="ic-1" stroke="none" stroke-width="1" fill="none" fill-rule="evenodd">
        <path d="M14.8091624,15.7619048 L12.8069002,15.6666667 C10.8999839,15.5714286 9.0884134,16.2857143 7.75357198,17.6190476 L4.46414133,20.9047619 C3.84439352,21.5238095 3.84439352,22.5714286 4.46414133,23.1904762 C4.60716005,23.3333333 4.79785168,23.4761905 4.98854331,23.5238095 L9.51746958,25.4285714 C9.18375922,26.4761905 8.89772177,27.5238095 8.65935723,28.5714286 C8.56401142,29 8.70703014,29.4285714 8.99306759,29.7619048 L15.1905456,35.952381 C15.4765831,36.2380952 15.9533122,36.3809524 16.3823683,36.2857143 C17.4311723,36.047619 18.4799763,35.7619048 19.5287803,35.4285714 L21.3880237,39.952381 C21.721734,40.7619048 22.6751922,41.1904762 23.4856316,40.8571429 C23.6763233,40.7619048 23.8670149,40.6666667 24.0100336,40.5238095 L27.2994643,37.2380952 C28.6343057,35.9047619 29.3493993,34.047619 29.2540535,32.1904762 L29.1587077,30.1904762 C36.3573168,24.4285714 40.6478785,16 41.9827199,5.04761905 C42.1257387,4.04761905 41.3629721,3.0952381 40.3618411,3 C40.2188223,3 40.0758036,3 39.9327849,3 C29.015689,4.28571429 20.5299113,8.61904762 14.8091624,15.7619048 Z M39.4083829,5.61904762 C38.0258686,15.7142857 33.8783256,23.4285714 27.1564455,28.5714286 C26.8227352,28.8095238 26.6320436,29.2380952 26.6320436,29.6666667 L26.7750623,32.2857143 C26.8227352,33.4761905 26.393679,34.6190476 25.5832396,35.4285714 L23.29494,37.7142857 L21.4833695,33.3333333 C21.197332,32.7142857 20.4822384,32.3809524 19.8624906,32.6190476 C18.8136866,33.047619 17.7172098,33.3809524 16.57306,33.6190476 L11.376713,28.4285714 C11.6627504,27.3333333 11.9964608,26.2380952 12.3778441,25.1428571 C12.6162086,24.4761905 12.3301712,23.7619048 11.6627504,23.5238095 L7.2768429,21.7142857 L9.56514249,19.4285714 C10.3755819,18.6190476 11.5197317,18.1428571 12.7115544,18.2380952 L15.3335644,18.3809524 C15.7626205,18.3809524 16.1440038,18.2380952 16.4300412,17.8571429 C21.5787153,11.1428571 29.3017264,7 39.4083829,5.61904762 Z M29.1587077,20.4285714 C31.7330447,20.4285714 33.7829798,18.3333333 33.7829798,15.8095238 C33.7829798,13.2857143 31.6853718,11.1904762 29.1587077,11.1904762 C26.5843707,11.1904762 24.5344356,13.2857143 24.5344356,15.8095238 C24.5344356,17.047619 25.0111647,18.2380952 25.9169499,19.0952381 C26.7273894,19.952381 27.9192121,20.4761905 29.1587077,20.4285714 Z M27.6808475,14.3333333 C28.491287,13.5238095 29.8261284,13.5238095 30.6365678,14.3333333 C31.4470073,15.1428571 31.4470073,16.4761905 30.6365678,17.2857143 C29.8261284,18.0952381 28.491287,18.0952381 27.6808475,17.2857143 C26.8704081,16.4761905 26.8704081,15.1904762 27.6808475,14.3333333 C27.6808475,14.3809524 27.6808475,14.3333333 27.6808475,14.3333333 Z M6.68041709,31.5714286 C6.68041709,31.7965057 6.68041709,32.0966084 6.75552765,32.3216855 C7.13108041,35.397739 9.53461811,37.7985612 12.6141508,38.1736896 L13.3652563,38.2487153 C10.3608342,40.4994861 6.75552765,41.7749229 3,42 C3.15022111,38.1736896 4.42710051,34.5724563 6.68041709,31.5714286 Z" id="Shape-Copy" fill="#33EA6A" fill-rule="nonzero"></path>
    </g>
</svg>