<?xml version="1.0" encoding="UTF-8"?>
<svg width="44px" height="44px" viewBox="0 0 44 44" version="1.1" xmlns="http://www.w3.org/2000/svg" xmlns:xlink="http://www.w3.org/1999/xlink">
    <!-- Generator: Sketch 50.2 (55047) - http://www.bohemiancoding.com/sketch -->
    <title>ic-3@1x</title>
    <desc>Created with Sketch.</desc>
    <defs></defs>
    <g id="ic-3" stroke="none" stroke-width="1" fill="none" fill-rule="evenodd">
        <path d="M23.5981577,10.8305355 L22.0493573,18.5545989 L27.5296577,18.9831139 L27.7189187,18.989723 C28.1414478,19.0993335 28.5590142,19.3510539 28.7333875,19.7839928 C28.9077609,20.2169317 28.8912189,20.6906314 28.6887243,21.062982 L21.3664895,34.0396222 C21.0644017,34.5507781 20.4426864,34.7187783 19.9304894,34.4637533 C19.5112688,34.2594028 19.2912344,33.7774417 19.4024069,33.3070466 L20.9528615,25.5356133 L15.4725611,25.1070983 L15.2833,25.1004891 C14.860771,24.9908786 14.4905198,24.7408105 14.2688312,24.3062193 C14.0944579,23.8732805 14.1109999,23.3995808 14.3134945,23.0272302 L21.6340751,10.09796 C21.9361629,9.586804 22.6051934,9.42045612 23.1157362,9.72285108 C23.4859874,9.97291922 23.707676,10.4075104 23.5981577,10.8305355 Z M21.5,1 C20.3163972,1 19.369515,1.94797688 19.369515,3.13294798 C19.369515,4.31791908 20.3163972,5.26589595 21.5,5.26589595 C30.448037,5.26589595 37.73903,12.5653179 37.73903,21.5236994 C37.73903,22.7086705 38.6859122,23.6566474 39.869515,23.6566474 C41.0531178,23.6566474 42,22.7086705 42,21.5236994 C41.9526559,10.1479769 32.8152425,1 21.5,1 Z M19.369515,39.867052 C19.369515,41.0520231 20.3163972,42 21.4526559,42 C21.4526559,42 21.4526559,42 21.4526559,42 C22.6362587,42 23.5831409,41.0520231 23.5831409,39.867052 C23.5831409,38.6820809 22.6362587,37.734104 21.4526559,37.734104 C20.3163972,37.734104 19.369515,38.6820809 19.369515,39.867052 Z M3.13048499,23.5618497 C4.31408776,23.5618497 5.26096998,22.6138728 5.26096998,21.4289017 C5.26096998,20.2439306 4.31408776,19.2959538 3.13048499,19.2959538 C1.94688222,19.2959538 1,20.2439306 1,21.4289017 C1,21.4289017 1,21.4289017 1,21.4289017 C1.04734411,22.6138728 1.99422633,23.5618497 3.13048499,23.5618497 Z M11.2263279,39.2034682 C12.2205543,39.7722543 13.5461894,39.4404624 14.1143187,38.4450867 C14.682448,37.449711 14.3510393,36.1225434 13.3568129,35.5537572 C12.3625866,34.9849711 11.0369515,35.316763 10.4688222,36.3121387 C9.90069284,37.3549133 10.2321016,38.6346821 11.2263279,39.2034682 Z M10.4688222,6.59306358 C11.0369515,7.58843931 12.3625866,7.92023121 13.3568129,7.35144509 C14.3510393,6.78265896 14.682448,5.45549133 14.1143187,4.46011561 C13.5461894,3.46473988 12.2205543,3.13294798 11.2263279,3.7017341 C10.2321016,4.27052023 9.90069284,5.59768786 10.4688222,6.59306358 C10.4688222,6.59306358 10.4688222,6.59306358 10.4688222,6.59306358 Z M4.55080831,28.8231214 C3.55658199,29.3919075 3.1778291,30.7190751 3.79330254,31.7144509 C4.36143187,32.7098266 5.68706697,33.0890173 6.6812933,32.4728324 C7.67551963,31.9040462 8.05427252,30.5768786 7.43879908,29.5815029 C7.43879908,29.5815029 7.43879908,29.5815029 7.43879908,29.5815029 C6.82332564,28.5861272 5.54503464,28.2543353 4.55080831,28.8231214 Z M37.3602771,32.8046243 C38.5438799,32.8046243 39.4907621,31.8566474 39.4907621,30.7190751 C39.4907621,29.534104 38.5438799,28.5861272 37.4076212,28.5861272 C36.2240185,28.5861272 35.2771363,29.534104 35.2771363,30.6716763 C35.2771363,31.4300578 35.6558891,32.1410405 36.3187067,32.5202312 C36.6501155,32.7098266 36.9815242,32.8046243 37.3602771,32.8046243 Z M6.63394919,10.4323699 C5.63972286,9.86358382 4.31408776,10.1953757 3.74595843,11.1907514 C3.1778291,12.1861272 3.50923788,13.5132948 4.5034642,14.0820809 C5.49769053,14.6508671 6.82332564,14.3190751 7.39145497,13.3236994 C8.00692841,12.3283237 7.67551963,11.0485549 6.63394919,10.4323699 C6.63394919,10.4323699 6.63394919,10.4323699 6.63394919,10.4323699 Z M28.8383372,38.4450867 C29.2170901,39.1086705 29.9272517,39.4878613 30.6847575,39.4878613 C31.0635104,39.4878613 31.3949192,39.3930636 31.7263279,39.2034682 C32.7205543,38.6346821 33.0993072,37.3075145 32.4838337,36.3121387 C31.9157044,35.316763 30.5900693,34.9375723 29.595843,35.5537572 C28.5542725,36.1699422 28.2228637,37.449711 28.8383372,38.4450867 C28.7909931,38.4450867 28.7909931,38.4450867 28.8383372,38.4450867 Z" id="Shape-Copy-2" fill="#33EA6A" fill-rule="nonzero"></path>
    </g>
</svg>