<?xml version="1.0" encoding="UTF-8"?>
<svg width="44px" height="44px" viewBox="0 0 44 44" version="1.1" xmlns="http://www.w3.org/2000/svg" xmlns:xlink="http://www.w3.org/1999/xlink">
    <!-- Generator: Sketch 50.2 (55047) - http://www.bohemiancoding.com/sketch -->
    <title>ic-4@1x</title>
    <desc>Created with Sketch.</desc>
    <defs></defs>
    <g id="ic-4" stroke="none" stroke-width="1" fill="none" fill-rule="evenodd">
        <path d="M30,38 L34.8087954,38 C34.91338,38 35,37.9114737 35,37.8080157 L35,10.30627 C35,10.2012589 34.9118333,10.1142857 34.8087954,10.1142857 L30,10.1142857 L30,38 Z M23,38 L23,10.1142857 L10.1912046,10.1142857 C10.08662,10.1142857 10,10.202812 10,10.30627 L10,37.8080157 C10,37.9130268 10.0881667,38 10.1912046,38 L23,38 Z M6,10 L3.71219512,10 C2.76657587,10 2,9.1045695 2,8 C2,6.8954305 2.76657587,6 3.71219512,6 L40.4020906,6 C41.3477098,6 42.1142857,6.8954305 42.1142857,8 C42.1142857,9.1045695 41.3477098,10 40.4020906,10 L39,10 L39,38.3051318 C39,40.3293642 37.3638311,42 35.3167421,42 L9.68325792,42 C7.66538622,42 6,40.3586736 6,38.3051318 L6,10 Z" id="Combined-Shape-Copy" fill="#33EA6A" fill-rule="nonzero"></path>
    </g>
</svg>