<svg xmlns="http://www.w3.org/2000/svg" width="881" height="64" viewBox="0 0 881 64">
    <defs>
        <linearGradient id="a" x1="50%" x2="50%" y1="71.436%" y2="108.549%">
            <stop offset="0%" stop-color="#FFF"/>
            <stop offset="100%" stop-color="#FFF" stop-opacity="0"/>
        </linearGradient>
        <linearGradient id="b" x1="50%" x2="50%" y1="74.1%" y2="109.897%">
            <stop offset="0%" stop-color="#FFF"/>
            <stop offset="100%" stop-color="#FFF" stop-opacity="0"/>
        </linearGradient>
    </defs>
    <g fill="none" fill-rule="evenodd">
        <path fill="#E41827" d="M0 0h410l-51.738 60H0zM881 60H471l61.748-60H881z"/>
        <text fill="#FFF" font-family="Avenir-Black, Avenir" font-size="28.8" font-weight="700" letter-spacing="-1.745">
            <tspan x="18" y="38">Keep betting</tspan>
        </text>
        <text fill="#FFF" font-family="Avenir-Black, Avenir" font-size="16" font-weight="700" letter-spacing="-.97">
            <tspan x="188" y="39">until you reach KSh 500</tspan>
        </text>
        <text fill="#FFF" font-family="Avenir-Black, Avenir" font-size="19.2" font-weight="700" letter-spacing="-1.745">
            <tspan x="535" y="44.712">Get up to</tspan> <tspan x="605.422" y="40.856" font-size="22.4"> </tspan> <tspan x="608.656" y="37" font-size="25.6">KSh 300 in Cash Gifts </tspan>
        </text>
        <path fill="url(#a)" fill-rule="nonzero" stroke="url(#b)" stroke-width=".853" d="M53.673 12.564h-10.46l3.58-3.61c.274-.555.274-1.11.274-1.388 0-.555-.275-1.11-.55-1.388L41.012.625c-.826-.833-1.927-.833-2.753 0L27.25 12.286 16.24.625c-.825-.833-1.926-.833-2.752 0L7.982 6.178c-.55.277-.826.833-.826 1.388 0 .555 0 .833.55 1.388l3.58 3.61h-9.36c-1.1 0-1.926.833-1.926 1.943v20.824c0 1.11.826 1.944 1.927 1.944h.55v16.381c0 1.111.826 1.944 1.927 1.944h46.792c1.101 0 1.927-.833 1.927-1.944V37.275h.55c1.101 0 1.927-.833 1.927-1.944V14.507c0-1.11-.826-1.943-1.927-1.943zM39.636 4.79l2.752 2.776-4.68 4.998h-5.504l7.432-7.774zm-27.8 2.776l2.752-2.776 7.432 7.496h-5.505l-4.68-4.72zM3.853 33.388V16.45h21.47v16.937H3.853zM49.27 51.713H6.331V37.275h42.663v14.438h.275zm2.478-18.325h-22.57V16.45h22.57v16.937z" opacity=".2" transform="translate(561 1)"/>
        <path fill="#E41827" fill-rule="nonzero" d="M462 42l-19.405 22V52.725H419V42h43z"/>
        <g fill="#F2AF00">
            <path fill-rule="nonzero" d="M447.666 18.5a14.361 14.361 0 0 1-1.916 7.271 14.237 14.237 0 0 1-5.231 5.285A13.993 13.993 0 0 1 433.314 33a13.884 13.884 0 0 1-7.19-1.944 14.285 14.285 0 0 1-5.21-5.285A14.361 14.361 0 0 1 419 18.5c0-2.618.638-5.041 1.916-7.27a14.285 14.285 0 0 1 5.21-5.285A13.884 13.884 0 0 1 433.316 4a13.993 13.993 0 0 1 7.204 1.945 14.237 14.237 0 0 1 5.232 5.285 14.361 14.361 0 0 1 1.914 7.27zm-16.125 7.248h3.585v-1.81h1.79a1.805 1.805 0 0 0 1.792-1.814v-5.436a1.797 1.797 0 0 0-1.792-1.816h-5.375v-1.81h7.167V9.437h-3.582V7.625h-3.585v1.812h-1.79a1.806 1.806 0 0 0-1.793 1.812v5.438a1.797 1.797 0 0 0 1.793 1.813h5.375v1.812h-7.168v3.626h3.583v1.812-.002z"/>
            <path d="M440.502 4c4.023.243 7.418 1.76 10.185 4.55 2.766 2.788 4.148 6.105 4.146 9.95 0 3.845-1.382 7.162-4.146 9.95-2.765 2.79-6.16 4.307-10.187 4.55 2.702-1.443 4.954-3.53 6.53-6.051 1.63-2.572 2.445-5.388 2.445-8.45 0-3.06-.815-5.876-2.445-8.448-1.576-2.52-3.827-4.607-6.528-6.051z" opacity=".4"/>
            <path d="M447.668 4c4.024.243 7.42 1.76 10.185 4.55 2.767 2.788 4.149 6.105 4.147 9.95 0 3.845-1.382 7.162-4.147 9.95-2.764 2.79-6.16 4.307-10.186 4.55 2.702-1.443 4.953-3.53 6.53-6.051 1.63-2.572 2.444-5.388 2.444-8.45 0-3.06-.814-5.876-2.444-8.448-1.576-2.52-3.827-4.607-6.529-6.051z" opacity=".2"/>
        </g>
    </g>
</svg>
