<?xml version="1.0" encoding="UTF-8"?>
<svg width="24px" height="24px" viewBox="0 0 24 24" version="1.1" xmlns="http://www.w3.org/2000/svg" xmlns:xlink="http://www.w3.org/1999/xlink">
    <!-- Generator: sketchtool 51.2 (57519) - http://www.bohemiancoding.com/sketch -->
    <title>38CE0CAB-B6D1-465C-A18E-925201C505D3</title>
    <desc>Created with sketchtool.</desc>
    <defs>
        <path d="M13.0183352,22.1819706 C17.9865189,21.7721038 21.890768,17.6100362 21.890768,12.5360825 C21.890768,7.4621287 17.9865189,3.30006116 13.0183352,2.89019437 C13.2842931,2.86825329 13.5533,2.85706489 13.82492,2.85706489 C19.1704938,2.85706489 23.5039376,7.19050867 23.5039376,12.5360825 C23.5039376,17.8816563 19.1704938,22.2151001 13.82492,22.2151001 C13.5533,22.2151001 13.2842931,22.2039117 13.0183352,22.1819706 Z M10.3297192,22.2151001 C4.98414538,22.2151001 0.650701604,17.8816563 0.650701604,12.5360825 C0.650701604,7.19050867 4.98414538,2.85706489 10.3297192,2.85706489 C15.675293,2.85706489 20.0087368,7.19050867 20.0087368,12.5360825 C20.0087368,17.8816563 15.675293,22.2151001 10.3297192,22.2151001 Z M10.3297192,20.0642073 C14.4873877,20.0642073 17.857844,16.693751 17.857844,12.5360825 C17.857844,8.37841396 14.4873877,5.00795768 10.3297192,5.00795768 C6.17205067,5.00795768 2.8015944,8.37841396 2.8015944,12.5360825 C2.8015944,16.693751 6.17205067,20.0642073 10.3297192,20.0642073 Z M6.5656568,16.1657141 C6.5656568,15.4974214 7.1072305,14.9558369 7.77553399,14.9558369 C8.44377805,14.9558369 8.98541119,15.4974214 8.98541119,16.1657141 C8.98541119,16.833947 8.44377805,17.3755913 7.77553399,17.3755913 C7.1072305,17.3755913 6.5656568,16.833947 6.5656568,16.1657141 Z M10.7475117,11.6364722 C10.7765675,11.6356639 10.8054993,11.6348555 10.8346171,11.6348555 C12.4212238,11.6348555 13.5722416,12.9199501 13.4055891,14.5051301 C13.2387506,16.0904967 11.8173716,17.3755913 10.2307029,17.3755913 C10.205736,17.3755913 10.180893,17.3752182 10.1561119,17.3755913 L9.97781228,17.3755913 L9.49185589,15.1668602 L10.3501476,15.1668602 C10.7021624,15.1487656 11.0111201,14.859313 11.0482917,14.5049436 C11.0855252,14.1516312 10.8389538,13.8629248 10.492143,13.8435865 L9.63131125,13.8410993 C9.6065302,13.8417833 9.58174915,13.8425295 9.55684419,13.8425295 C7.96967989,13.8425295 6.81822841,12.5569996 6.98500487,10.9711978 C7.15184329,9.3854581 8.57377994,8.09986608 10.1609442,8.09986608 C10.1859111,8.09986608 10.2107541,8.10023917 10.2355972,8.09986608 L10.4138968,8.09986608 L10.900101,10.3093433 L10.0414996,10.3093433 C9.68936086,10.327438 9.38034116,10.6170148 9.34310764,10.9714465 C9.3057502,11.3259403 9.55380851,11.6153307 9.90210617,11.6348555 L10.7475117,11.6364722 Z M13.0183649,7.69657368 C13.6865331,7.69657368 14.2282124,8.23821794 14.2282124,8.90645088 C14.2282124,9.57468381 13.6865331,10.1163281 13.0183649,10.1163281 C12.3500778,10.1163281 11.808458,9.57468381 11.808458,8.90645088 C11.808458,8.23821794 12.3500778,7.69657368 13.0183649,7.69657368 Z" id="path-1"></path>
    </defs>
    <g id="Symbols" stroke="none" stroke-width="1" fill="none" fill-rule="evenodd">
        <g id="Icon/24_ME-sportyIcons">
            <mask id="mask-2" fill="white">
                <use xlink:href="#path-1"></use>
            </mask>
            <use id="Combined-Shape" fill="#775D19" fill-rule="nonzero" opacity="0.300000012" xlink:href="#path-1"></use>
            <g id="_Color/Blue-Dark" mask="url(#mask-2)" fill="#DCDEE5">
                <rect id="Rectangle-4" x="0" y="0" width="24" height="24"></rect>
            </g>
        </g>
    </g>
</svg>
