<svg xmlns="http://www.w3.org/2000/svg" width="21" height="10" viewBox="0 0 21 10">
    <g fill="none" fill-rule="evenodd">
        <path fill="#0D9737" fill-rule="nonzero" d="M0 0h21v9H4l-1 1-1-1H0z"/>
        <path fill="#FFF" d="M6.124 6.82c0 .084-.024.134-.074.153A.65.65 0 0 1 5.836 7H2.872c-.104 0-.164-.02-.18-.062a.664.664 0 0 1-.023-.211V1.493c0-.073.015-.125.047-.156.03-.031.09-.047.179-.047h.936c.114 0 .195.017.242.051.047.034.07.103.07.207v4.227c0 .063.014.103.043.121a.262.262 0 0 0 .136.028H5.93c.099 0 .156.015.172.046a.303.303 0 0 1 .023.133v.718zm2.231-.015c0 .073-.016.123-.047.152-.031.029-.09.043-.18.043h-.95c-.11 0-.187-.016-.23-.047-.045-.031-.067-.096-.067-.195v-5.25c0-.088.017-.146.05-.175.034-.028.111-.043.23-.043h.991c.089 0 .144.02.168.059a.389.389 0 0 1 .035.191v5.265zm4.11-.023a.367.367 0 0 1-.093.163c-.036.032-.112.047-.226.047h-1.162c-.115 0-.191-.015-.23-.047a.35.35 0 0 1-.098-.171L9.065 1.548c-.042-.125-.03-.2.035-.223a.762.762 0 0 1 .253-.035h.952c.094 0 .15.013.172.04.02.025.044.08.07.163l1.154 3.83 1.147-3.83a.568.568 0 0 1 .07-.164c.02-.026.073-.039.156-.039h.702c.11 0 .194.01.254.032.06.02.074.083.042.187l-1.606 5.273zm6.077.03c0 .068-.017.116-.05.145a.17.17 0 0 1-.114.043h-3.307a.266.266 0 0 1-.152-.05c-.05-.035-.074-.1-.074-.2V1.548c0-.073.007-.134.023-.183.016-.05.068-.075.156-.075h3.159c.094 0 .152.015.175.043.024.029.036.072.036.129v.741c0 .078-.033.125-.098.14a1.164 1.164 0 0 1-.261.024h-1.591c-.089 0-.145.013-.168.039a.126.126 0 0 0-.035.086v.819c0 .12.057.179.171.179h1.428c.109 0 .18.017.21.05a.128.128 0 0 1 .032.122l-.063.725a.202.202 0 0 1-.05.129.222.222 0 0 1-.102.058.452.452 0 0 1-.117.016h-1.275c-.146 0-.219.06-.219.18v.927c0 .089.028.14.082.152.055.014.119.02.191.02h1.615c.14 0 .242.012.304.035.063.024.094.072.094.144v.765z"/>
    </g>
</svg>
