<?xml version="1.0" encoding="UTF-8"?>
<svg width="22px" height="15px" viewBox="0 0 22 15" version="1.1" xmlns="http://www.w3.org/2000/svg" xmlns:xlink="http://www.w3.org/1999/xlink">
    <!-- Generator: Sketch 46.2 (44496) - http://www.bohemiancoding.com/sketch -->
    <title>KenyaFlag</title>
    <desc>Created with Sketch.</desc>
    <defs></defs>
    <g id="UI" stroke="none" stroke-width="1" fill="none" fill-rule="evenodd">
        <g id="KenyaFlag" fill-rule="nonzero">
            <polygon id="Shape" fill="#00853E" points="0 10 22 10 22 15 0 15"></polygon>
            <polygon id="Shape" fill="#BE1724" points="0 4.92655063 22 4.92655063 22 9.79534074 0 9.79534074"></polygon>
            <polygon id="Shape" fill="#231815" points="0 0 22 0 22 5 0 5"></polygon>
            <path d="M0,4.54786696 L22,4.54786696 L22,5.2691692 L0,5.2691692 L0,4.54786696 Z M0,9.41665705 L22,9.41665705 L22,10.1379593 L0,10.1379593 L0,9.41665705 Z" id="Shape" fill="#FFFFFF"></path>
            <path d="M13.0268311,4.56589951 C13.2973195,4.49376929 13.4596125,4.24131351 13.6038729,3.98885772 C13.7120682,3.82656471 14.28911,2.27576491 14.28911,2.27576491 C14.28911,2.27576491 13.1710916,3.53804382 13.0809288,3.70033683 C12.9366683,3.95279261 12.7743753,4.2052484 12.8465056,4.47573673 L11.0071848,7.54127125 L9.16786414,4.47573673 C9.23999437,4.2052484 9.09573392,3.95279261 8.93344092,3.70033683 C8.82524558,3.53804382 7.72525968,2.27576491 7.72525966,2.27576491 C7.72525965,2.27576491 8.30230146,3.82656473 8.4104968,3.98885772 C8.55475725,4.2413135 8.71705024,4.49376929 8.98753858,4.56589951 L10.8989895,7.7215968 L8.08591078,12.3379311 L8.26623634,12.4280939 L10.9891523,7.91995492 L13.7301008,12.4461265 L13.9104264,12.3559637 L11.1153802,7.7215968 L13.0268311,4.56589951 L13.0268311,4.56589951 Z" id="Shape" fill="#FFFFFF"></path>
            <path d="M13.0268311,4.56589951 C13.315352,4.51180184 13.4596125,4.24131351 13.6219055,3.98885772 C13.7301008,3.80853216 14.3071426,2.27576491 14.3071426,2.27576491 L14.28911,2.25773235 C14.28911,2.25773235 13.1710916,3.52001127 13.0809288,3.68230427 C12.9547009,3.89869495 12.828473,4.09705306 12.828473,4.31344374 L12.8465056,4.45770418 L12.8645381,4.45770418 L10.9891523,7.50520614 L9.14983158,4.45770418 L9.16786414,4.45770418 L9.1858967,4.31344374 C9.1858967,4.09705306 9.0596688,3.8806624 8.93344092,3.68230427 C8.82524558,3.52001127 7.72525968,2.25773235 7.72525966,2.25773235 L7.70722711,2.27576491 C7.70722711,2.27576491 8.2842689,3.82656473 8.39246424,3.98885772 C8.53672469,4.2413135 8.69901769,4.49376929 8.98753858,4.56589951 L8.98753858,4.54786696 L10.880957,7.70356424 L8.06787822,12.3379311 L8.24820379,12.4461265 L10.9711197,7.91995492 L13.6940357,12.4461265 L13.8743612,12.3379311 L11.1334127,7.7215968 L13.0268311,4.56589951 L11.0973476,7.7215968 L13.8923938,12.3379311 L13.7301008,12.4280939 L10.9891523,7.88388981 L8.26623634,12.4280939 L8.10394334,12.3379311 L10.8989895,7.7215968 L8.98753858,4.54786696 C8.71705024,4.47573673 8.57278979,4.22328095 8.4104968,3.97082516 C8.30230146,3.80853216 7.72525966,2.25773235 7.72525966,2.25773235 L7.70722711,2.25773235 C7.70722711,2.25773235 8.82524558,3.52001127 8.91540836,3.68230427 C9.04163626,3.8806624 9.16786414,4.09705306 9.16786414,4.31344374 L9.14983158,4.45770418 L11.0071848,7.54127125 L12.8645381,4.45770418 L12.828473,4.31344374 C12.828473,4.09705306 12.9547009,3.89869495 13.0809288,3.68230427 C13.1891241,3.52001127 14.28911,2.25773235 14.28911,2.25773235 C14.28911,2.25773235 13.7120682,3.80853217 13.6038729,3.97082516 C13.4415799,4.22328094 13.2973195,4.47573673 13.0268311,4.56589951 L13.0268311,4.56589951 Z" id="Shape" fill="#231815"></path>
            <path d="M12.9366683,5.01671341 C12.6301149,4.24131351 11.6202918,2.67248114 11.0071848,2.67248114 C10.3940779,2.67248114 9.38425482,4.22328095 9.07770136,5.01671341 C9.3842548,5.79211331 9.58261293,6.56751323 9.58261293,7.36094569 C9.58261293,8.13634559 9.3842548,8.9117455 9.07770136,9.70517796 C9.3842548,10.4805779 10.3940779,12.0494102 11.0071848,12.0494102 C11.6202918,12.0494102 12.6301149,10.4986104 12.9366683,9.70517796 C12.6301149,8.92977806 12.4317568,8.15437814 12.4317568,7.36094569 C12.4137242,6.56751323 12.6301149,5.79211331 12.9366683,5.01671341 Z" id="Shape" fill="#BE1724"></path>
            <path d="M12.9366683,5.01671341 C12.3235614,6.60357834 12.3235614,8.10028047 12.9366683,9.6871454 C13.5497752,8.10028047 13.5497752,6.60357834 12.9366683,5.01671341 Z M9.0596688,5.01671341 C8.44656191,6.60357834 8.44656191,8.10028047 9.0596688,9.6871454 C9.69080827,8.10028047 9.69080827,6.60357834 9.0596688,5.01671341 Z" id="Shape" fill="#231815"></path>
            <path d="M10.9891523,6.76587134 C11.530129,6.76587134 11.530129,7.93798746 10.9891523,7.93798748 C10.4481756,7.93798749 10.4481756,6.76587135 10.9891523,6.76587134 L10.9891523,6.76587134 Z" id="Shape" fill="#FFFFFF"></path>
            <path d="M11.0973476,7.91995492 C11.6743894,9.12813616 11.6743894,10.8051639 11.0973476,12.0133451 L11.0973476,7.91995492 Z M10.8989895,6.78390389 C10.3219477,5.57572265 10.3219477,3.89869494 10.8989895,2.6905137 L10.8989895,6.78390389 Z M10.8989895,7.91995492 C10.3219477,9.12813616 10.3219477,10.8051639 10.8989895,12.0133451 L10.8989895,7.91995492 Z M11.0973476,6.78390389 C11.6743894,5.57572265 11.6743894,3.89869494 11.0973476,2.6905137 L11.0973476,6.78390389 Z" id="Shape" fill="#FFFFFF"></path>
        </g>
    </g>
</svg>