<?xml version="1.0" encoding="UTF-8"?>
<svg width="19px" height="19px" viewBox="0 0 19 19" version="1.1" xmlns="http://www.w3.org/2000/svg" xmlns:xlink="http://www.w3.org/1999/xlink">
    <!-- Generator: sketchtool 48.2 (47327) - http://www.bohemiancoding.com/sketch -->
    <title>334602EB-DEF6-4CD7-A619-905AF7C9D997</title>
    <desc>Created with sketchtool.</desc>
    <defs></defs>
    <g id="back" stroke="none" stroke-width="1" fill="none" fill-rule="evenodd" transform="translate(-325.000000, -11.000000)">
        <g id="Group" fill="#9CA0AB" fill-rule="nonzero">
            <g id="Group-Copy" transform="translate(325.000000, 11.000000)">
                <path d="M9.38095238,0.380952381 C4.41295238,0.380952381 0.380952381,4.41295238 0.380952381,9.38095238 C0.380952381,14.3489524 4.41295238,18.3809524 9.38095238,18.3809524 C14.3489524,18.3809524 18.3809524,14.3489524 18.3809524,9.38095238 C18.3809524,4.41295238 14.3489524,0.380952381 9.38095238,0.380952381 Z M10.2809524,15.6809524 L8.48095238,15.6809524 L8.48095238,13.8809524 L10.2809524,13.8809524 L10.2809524,15.6809524 Z M12.1439524,8.70595238 L11.3339524,9.53395238 C10.6859524,10.1909524 10.2809524,10.7309524 10.2809524,12.0809524 L8.48095238,12.0809524 L8.48095238,11.6309524 C8.48095238,10.6409524 8.88595238,9.74095238 9.53395238,9.08395238 L10.6499524,7.94995238 C10.9829524,7.62595238 11.1809524,7.17595238 11.1809524,6.68095238 C11.1809524,5.69095238 10.3709524,4.88095238 9.38095238,4.88095238 C8.39095238,4.88095238 7.58095238,5.69095238 7.58095238,6.68095238 L5.78095238,6.68095238 C5.78095238,4.69195238 7.39195238,3.08095238 9.38095238,3.08095238 C11.3699524,3.08095238 12.9809524,4.69195238 12.9809524,6.68095238 C12.9809524,7.47295238 12.6569524,8.19295238 12.1439524,8.70595238 Z" id="Shape"></path>
            </g>
        </g>
    </g>
</svg>