<?xml version="1.0" encoding="UTF-8"?>
<svg width="16px" height="19px" viewBox="0 0 16 19" version="1.1" xmlns="http://www.w3.org/2000/svg" xmlns:xlink="http://www.w3.org/1999/xlink">
    <!-- Generator: sketchtool 48.2 (47327) - http://www.bohemiancoding.com/sketch -->
    <title>BCD5B54E-B63A-4C76-AEA3-02204C3657E3</title>
    <desc>Created with sketchtool.</desc>
    <defs></defs>
    <g id="NG-首次充值错误提示" stroke="none" stroke-width="1" fill="none" fill-rule="evenodd" transform="translate(-175.000000, -359.000000)">
        <g id="Group" transform="translate(175.000000, 359.000000)" fill="#0D9737" fill-rule="nonzero">
            <path d="M3.56607143,4.22321429 C3.81071429,3.93035714 4.08392857,3.6625 4.38035714,3.42142857 L3.15,2.19107143 C2.92678571,1.96785714 2.56428571,1.96785714 2.34285714,2.19107143 C2.11964286,2.41428571 2.11964286,2.77678571 2.34285714,2.99821429 L3.56607143,4.22321429 Z M2.22321429,7.92857143 C2.22321429,7.70892857 2.23571429,7.49107143 2.25892857,7.27678571 L0.571428571,7.27678571 C0.255357143,7.27678571 0,7.53214286 0,7.84821429 C0,8.16428571 0.255357143,8.41964286 0.571428571,8.41964286 L2.24464286,8.41964286 C2.23035714,8.25714286 2.22321429,8.09285714 2.22321429,7.92857143 Z M12.4428571,4.2125 L13.6553571,3 C13.8785714,2.77678571 13.8785714,2.41428571 13.6553571,2.19285714 C13.4321429,1.96964286 13.0696429,1.96964286 12.8482143,2.19285714 L11.6267857,3.41428571 C11.925,3.65178571 12.1982143,3.91964286 12.4428571,4.2125 Z M8.5625,2.16964286 L8.5625,0.571428571 C8.5625,0.255357143 8.30714286,0 7.99107143,0 C7.675,0 7.41964286,0.255357143 7.41964286,0.571428571 L7.41964286,2.17321429 C7.61607143,2.15357143 7.8125,2.14285714 8.00892857,2.14285714 C8.19642857,2.14285714 8.38035714,2.15178571 8.5625,2.16964286 Z M7.99107143,3.42857143 C5.32857143,3.42857143 3.16964286,5.5875 3.16964286,8.25 C3.16964286,9.99821429 4.1,11.5285714 5.49107143,12.3732143 L5.49107143,13.7321429 C5.49107143,14.3625 6.00357143,14.875 6.63392857,14.875 L9.34821429,14.875 C9.97857143,14.875 10.4910714,14.3625 10.4910714,13.7321429 L10.4910714,12.3732143 C11.8821429,11.5267857 12.8125,9.99642857 12.8125,8.25 C12.8125,5.5875 10.6535714,3.42857143 7.99107143,3.42857143 Z M15.4285714,7.27678571 L13.7589286,7.27678571 C13.7839286,7.49285714 13.7946429,7.71071429 13.7946429,7.92857143 C13.7946429,8.09464286 13.7875,8.25714286 13.7732143,8.41964286 L15.4285714,8.41964286 C15.7446429,8.41964286 16,8.16428571 16,7.84821429 C16,7.53214286 15.7446429,7.27678571 15.4285714,7.27678571 Z M7.99107143,18.0357143 C9.425,18.0357143 9.70535714,17.0357143 9.70535714,17.0357143 L6.27678571,17.0357143 C6.27678571,17.0357143 6.55714286,18.0357143 7.99107143,18.0357143 Z M9.53571429,15.4642857 L6.46428571,15.4642857 C6.1875,15.4642857 5.96428571,15.6875 5.96428571,15.9642857 C5.96428571,16.2410714 6.1875,16.4642857 6.46428571,16.4642857 L9.53571429,16.4642857 C9.8125,16.4642857 10.0357143,16.2410714 10.0357143,15.9642857 C10.0357143,15.6875 9.8125,15.4642857 9.53571429,15.4642857 Z" id="Shape"></path>
        </g>
    </g>
</svg>