<?xml version="1.0" encoding="UTF-8"?>
<svg width="24px" height="24px" viewBox="0 0 24 24" version="1.1" xmlns="http://www.w3.org/2000/svg" xmlns:xlink="http://www.w3.org/1999/xlink">
    <!-- Generator: Sketch 52.2 (67145) - http://www.bohemiancoding.com/sketch -->
    <title>Icon-Casino@1x</title>
    <desc>Created with Sketch.</desc>
    <g id="Icon-Casino" stroke="none" stroke-width="1" fill="none" fill-rule="evenodd">
        <g id="Group" transform="translate(2.000000, 0.000000)" fill-rule="nonzero">
            <path d="M9.91188119,1.2981867 C7.70806052,3.33299218 6.06701472,4.73377929 4.97212991,5.51137872 C2.05377944,7.58402386 0.401359111,11.4674755 1.10904385,14.0740048 C1.75877023,16.4670631 3.2275529,17.700946 5.20560587,17.9523046 C6.81142042,18.1563615 8.59992353,17.6199944 9.29140808,16.8923198 L9.98006601,16.1676198 L10.6687239,16.8923198 C11.3760642,17.63668 12.9849005,18.1523957 14.4739641,17.9531205 C16.3396088,17.7034489 17.8557297,16.4496014 18.7426622,13.9995534 C19.7381415,11.2496572 18.3559969,7.64639162 15.0297232,5.53937967 C13.8702927,4.80494406 12.1729475,3.39604119 9.91188119,1.2981867 Z" id="Oval-2" stroke="#000000" stroke-width="1.9" fill="#BF89FF"></path>
            <path d="M10,15 C10.5278475,17.6877945 11.1945142,19.5744255 12,20.659893 C12.8054858,21.7453606 14.1388192,22.5539167 16,23.0855615 L16,24 L4,24 L4,23.0855615 C5.99914903,22.3679917 7.33248236,21.5594355 8,20.659893 C8.66751764,19.7603506 9.3341843,17.8737195 10,15 Z" id="Triangle" fill="#1B1E25"></path>
        </g>
    </g>
</svg>